ISO-10303-21;
HEADER;
FILE_DESCRIPTION((''),'2;1');
FILE_NAME('E_S-2WR3','2020-11-10T',('eng604'),(''),
'PRO/ENGINEER BY PARAMETRIC TECHNOLOGY CORPORATION, 2014000',
'PRO/ENGINEER BY PARAMETRIC TECHNOLOGY CORPORATION, 2014000','');
FILE_SCHEMA(('CONFIG_CONTROL_DESIGN'));
ENDSEC;
DATA;
#182=DIRECTION('',(0.E0,0.E0,-1.E0));
#183=VECTOR('',#182,7.05E0);
#184=CARTESIAN_POINT('',(-9.325E0,0.E0,4.05E0));
#185=LINE('',#184,#183);
#186=DIRECTION('',(0.E0,0.E0,1.E0));
#187=VECTOR('',#186,7.05E0);
#188=CARTESIAN_POINT('',(-9.825E0,1.016E1,-3.E0));
#189=LINE('',#188,#187);
#190=DIRECTION('',(0.E0,0.E0,-1.E0));
#191=VECTOR('',#190,7.05E0);
#192=CARTESIAN_POINT('',(-9.825E0,0.E0,4.05E0));
#193=LINE('',#192,#191);
#194=DIRECTION('',(1.E0,0.E0,0.E0));
#195=VECTOR('',#194,1.965E1);
#196=CARTESIAN_POINT('',(-9.825E0,1.016E1,-3.E0));
#197=LINE('',#196,#195);
#198=DIRECTION('',(0.E0,0.E0,-1.E0));
#199=VECTOR('',#198,7.05E0);
#200=CARTESIAN_POINT('',(9.825E0,1.016E1,4.05E0));
#201=LINE('',#200,#199);
#202=DIRECTION('',(0.E0,-1.E0,0.E0));
#203=VECTOR('',#202,1.016E1);
#204=CARTESIAN_POINT('',(9.825E0,1.016E1,-3.E0));
#205=LINE('',#204,#203);
#206=DIRECTION('',(0.E0,0.E0,-1.E0));
#207=VECTOR('',#206,7.05E0);
#208=CARTESIAN_POINT('',(9.825E0,0.E0,4.05E0));
#209=LINE('',#208,#207);
#210=DIRECTION('',(0.E0,0.E0,-1.E0));
#211=VECTOR('',#210,7.05E0);
#212=CARTESIAN_POINT('',(9.325E0,0.E0,4.05E0));
#213=LINE('',#212,#211);
#214=DIRECTION('',(0.E0,0.E0,-1.E0));
#215=VECTOR('',#214,7.05E0);
#216=CARTESIAN_POINT('',(9.325E0,5.E-1,4.05E0));
#217=LINE('',#216,#215);
#218=DIRECTION('',(-1.E0,0.E0,0.E0));
#219=VECTOR('',#218,1.865E1);
#220=CARTESIAN_POINT('',(9.325E0,5.E-1,-3.E0));
#221=LINE('',#220,#219);
#222=DIRECTION('',(0.E0,0.E0,-1.E0));
#223=VECTOR('',#222,3.E-1);
#224=CARTESIAN_POINT('',(-5.325E0,5.E-1,-1.95E0));
#225=LINE('',#224,#223);
#226=DIRECTION('',(1.E0,0.E0,0.E0));
#227=VECTOR('',#226,5.E-1);
#228=CARTESIAN_POINT('',(-5.325E0,5.E-1,-2.25E0));
#229=LINE('',#228,#227);
#230=DIRECTION('',(0.E0,0.E0,1.E0));
#231=VECTOR('',#230,3.E-1);
#232=CARTESIAN_POINT('',(-4.825E0,5.E-1,-2.25E0));
#233=LINE('',#232,#231);
#234=DIRECTION('',(-1.E0,0.E0,0.E0));
#235=VECTOR('',#234,5.E-1);
#236=CARTESIAN_POINT('',(-4.825E0,5.E-1,-1.95E0));
#237=LINE('',#236,#235);
#238=DIRECTION('',(0.E0,0.E0,-1.E0));
#239=VECTOR('',#238,3.E-1);
#240=CARTESIAN_POINT('',(-2.45E-1,5.E-1,-1.95E0));
#241=LINE('',#240,#239);
#242=DIRECTION('',(1.E0,0.E0,0.E0));
#243=VECTOR('',#242,5.E-1);
#244=CARTESIAN_POINT('',(-2.45E-1,5.E-1,-2.25E0));
#245=LINE('',#244,#243);
#246=DIRECTION('',(0.E0,0.E0,1.E0));
#247=VECTOR('',#246,3.E-1);
#248=CARTESIAN_POINT('',(2.55E-1,5.E-1,-2.25E0));
#249=LINE('',#248,#247);
#250=DIRECTION('',(-1.E0,0.E0,0.E0));
#251=VECTOR('',#250,5.E-1);
#252=CARTESIAN_POINT('',(2.55E-1,5.E-1,-1.95E0));
#253=LINE('',#252,#251);
#254=DIRECTION('',(0.E0,0.E0,-1.E0));
#255=VECTOR('',#254,3.E-1);
#256=CARTESIAN_POINT('',(2.295E0,5.E-1,-1.95E0));
#257=LINE('',#256,#255);
#258=DIRECTION('',(1.E0,0.E0,0.E0));
#259=VECTOR('',#258,5.E-1);
#260=CARTESIAN_POINT('',(2.295E0,5.E-1,-2.25E0));
#261=LINE('',#260,#259);
#262=DIRECTION('',(0.E0,0.E0,1.E0));
#263=VECTOR('',#262,3.E-1);
#264=CARTESIAN_POINT('',(2.795E0,5.E-1,-2.25E0));
#265=LINE('',#264,#263);
#266=DIRECTION('',(-1.E0,0.E0,0.E0));
#267=VECTOR('',#266,5.E-1);
#268=CARTESIAN_POINT('',(2.795E0,5.E-1,-1.95E0));
#269=LINE('',#268,#267);
#270=DIRECTION('',(0.E0,0.E0,-1.E0));
#271=VECTOR('',#270,3.E-1);
#272=CARTESIAN_POINT('',(4.835E0,5.E-1,-1.95E0));
#273=LINE('',#272,#271);
#274=DIRECTION('',(1.E0,0.E0,0.E0));
#275=VECTOR('',#274,5.E-1);
#276=CARTESIAN_POINT('',(4.835E0,5.E-1,-2.25E0));
#277=LINE('',#276,#275);
#278=DIRECTION('',(0.E0,0.E0,1.E0));
#279=VECTOR('',#278,3.E-1);
#280=CARTESIAN_POINT('',(5.335E0,5.E-1,-2.25E0));
#281=LINE('',#280,#279);
#282=DIRECTION('',(-1.E0,0.E0,0.E0));
#283=VECTOR('',#282,5.E-1);
#284=CARTESIAN_POINT('',(5.335E0,5.E-1,-1.95E0));
#285=LINE('',#284,#283);
#286=DIRECTION('',(0.E0,0.E0,-1.E0));
#287=VECTOR('',#286,7.05E0);
#288=CARTESIAN_POINT('',(-9.325E0,5.E-1,4.05E0));
#289=LINE('',#288,#287);
#290=DIRECTION('',(0.E0,-1.E0,0.E0));
#291=VECTOR('',#290,5.E-1);
#292=CARTESIAN_POINT('',(-9.325E0,5.E-1,-3.E0));
#293=LINE('',#292,#291);
#294=DIRECTION('',(0.E0,1.E0,0.E0));
#295=VECTOR('',#294,1.016E1);
#296=CARTESIAN_POINT('',(-9.825E0,0.E0,4.05E0));
#297=LINE('',#296,#295);
#298=DIRECTION('',(1.E0,0.E0,0.E0));
#299=VECTOR('',#298,1.965E1);
#300=CARTESIAN_POINT('',(-9.825E0,1.016E1,4.05E0));
#301=LINE('',#300,#299);
#302=DIRECTION('',(0.E0,-1.E0,0.E0));
#303=VECTOR('',#302,1.016E1);
#304=CARTESIAN_POINT('',(9.825E0,1.016E1,4.05E0));
#305=LINE('',#304,#303);
#306=DIRECTION('',(-1.E0,0.E0,0.E0));
#307=VECTOR('',#306,5.E-1);
#308=CARTESIAN_POINT('',(9.825E0,0.E0,4.05E0));
#309=LINE('',#308,#307);
#310=DIRECTION('',(0.E0,1.E0,0.E0));
#311=VECTOR('',#310,5.E-1);
#312=CARTESIAN_POINT('',(9.325E0,0.E0,4.05E0));
#313=LINE('',#312,#311);
#314=DIRECTION('',(-1.E0,0.E0,0.E0));
#315=VECTOR('',#314,1.865E1);
#316=CARTESIAN_POINT('',(9.325E0,5.E-1,4.05E0));
#317=LINE('',#316,#315);
#318=DIRECTION('',(0.E0,-1.E0,0.E0));
#319=VECTOR('',#318,5.E-1);
#320=CARTESIAN_POINT('',(-9.325E0,5.E-1,4.05E0));
#321=LINE('',#320,#319);
#322=DIRECTION('',(-1.E0,0.E0,0.E0));
#323=VECTOR('',#322,5.E-1);
#324=CARTESIAN_POINT('',(-9.325E0,0.E0,4.05E0));
#325=LINE('',#324,#323);
#326=CARTESIAN_POINT('',(-8.58E0,1.74E0,4.05E0));
#327=DIRECTION('',(0.E0,0.E0,1.E0));
#328=DIRECTION('',(-1.E0,0.E0,0.E0));
#329=AXIS2_PLACEMENT_3D('',#326,#327,#328);
#331=CARTESIAN_POINT('',(-8.58E0,1.74E0,4.05E0));
#332=DIRECTION('',(0.E0,0.E0,1.E0));
#333=DIRECTION('',(1.E0,0.E0,0.E0));
#334=AXIS2_PLACEMENT_3D('',#331,#332,#333);
#336=DIRECTION('',(0.E0,0.E0,1.E0));
#337=VECTOR('',#336,7.E-2);
#338=CARTESIAN_POINT('',(-8.13E0,1.74E0,3.98E0));
#339=LINE('',#338,#337);
#340=DIRECTION('',(0.E0,0.E0,-1.E0));
#341=VECTOR('',#340,7.E-2);
#342=CARTESIAN_POINT('',(-9.03E0,1.74E0,4.05E0));
#343=LINE('',#342,#341);
#344=CARTESIAN_POINT('',(-8.58E0,1.74E0,3.98E0));
#345=DIRECTION('',(0.E0,0.E0,-1.E0));
#346=DIRECTION('',(-1.E0,0.E0,0.E0));
#347=AXIS2_PLACEMENT_3D('',#344,#345,#346);
#349=CARTESIAN_POINT('',(-8.58E0,1.74E0,3.98E0));
#350=DIRECTION('',(0.E0,0.E0,-1.E0));
#351=DIRECTION('',(1.E0,0.E0,0.E0));
#352=AXIS2_PLACEMENT_3D('',#349,#350,#351);
#354=DIRECTION('',(0.E0,-1.E0,0.E0));
#355=VECTOR('',#354,5.E-1);
#356=CARTESIAN_POINT('',(9.325E0,5.E-1,-3.E0));
#357=LINE('',#356,#355);
#358=DIRECTION('',(1.E0,0.E0,0.E0));
#359=VECTOR('',#358,5.E-1);
#360=CARTESIAN_POINT('',(9.325E0,0.E0,-3.E0));
#361=LINE('',#360,#359);
#362=DIRECTION('',(0.E0,-1.E0,0.E0));
#363=VECTOR('',#362,1.016E1);
#364=CARTESIAN_POINT('',(-9.825E0,1.016E1,-3.E0));
#365=LINE('',#364,#363);
#366=DIRECTION('',(1.E0,0.E0,0.E0));
#367=VECTOR('',#366,5.E-1);
#368=CARTESIAN_POINT('',(-9.825E0,0.E0,-3.E0));
#369=LINE('',#368,#367);
#370=DIRECTION('',(0.E0,0.E0,1.E0));
#371=VECTOR('',#370,3.E-1);
#372=CARTESIAN_POINT('',(-7.865E0,5.E-1,-2.25E0));
#373=LINE('',#372,#371);
#374=DIRECTION('',(0.E0,1.E0,0.E0));
#375=VECTOR('',#374,4.6E0);
#376=CARTESIAN_POINT('',(-7.865E0,-4.1E0,-2.25E0));
#377=LINE('',#376,#375);
#378=DIRECTION('',(1.E0,0.E0,0.E0));
#379=VECTOR('',#378,5.E-1);
#380=CARTESIAN_POINT('',(-7.865E0,5.E-1,-1.95E0));
#381=LINE('',#380,#379);
#382=DIRECTION('',(0.E0,1.E0,0.E0));
#383=VECTOR('',#382,4.6E0);
#384=CARTESIAN_POINT('',(-7.865E0,-4.1E0,-1.95E0));
#385=LINE('',#384,#383);
#386=DIRECTION('',(0.E0,0.E0,-1.E0));
#387=VECTOR('',#386,3.E-1);
#388=CARTESIAN_POINT('',(-7.365E0,5.E-1,-1.95E0));
#389=LINE('',#388,#387);
#390=DIRECTION('',(0.E0,1.E0,0.E0));
#391=VECTOR('',#390,4.6E0);
#392=CARTESIAN_POINT('',(-7.365E0,-4.1E0,-1.95E0));
#393=LINE('',#392,#391);
#394=DIRECTION('',(-1.E0,0.E0,0.E0));
#395=VECTOR('',#394,5.E-1);
#396=CARTESIAN_POINT('',(-7.365E0,5.E-1,-2.25E0));
#397=LINE('',#396,#395);
#398=DIRECTION('',(0.E0,1.E0,0.E0));
#399=VECTOR('',#398,4.6E0);
#400=CARTESIAN_POINT('',(-7.365E0,-4.1E0,-2.25E0));
#401=LINE('',#400,#399);
#402=DIRECTION('',(0.E0,0.E0,1.E0));
#403=VECTOR('',#402,3.E-1);
#404=CARTESIAN_POINT('',(-7.865E0,-4.1E0,-2.25E0));
#405=LINE('',#404,#403);
#406=DIRECTION('',(1.E0,0.E0,0.E0));
#407=VECTOR('',#406,5.E-1);
#408=CARTESIAN_POINT('',(-7.865E0,-4.1E0,-1.95E0));
#409=LINE('',#408,#407);
#410=DIRECTION('',(0.E0,0.E0,-1.E0));
#411=VECTOR('',#410,3.E-1);
#412=CARTESIAN_POINT('',(-7.365E0,-4.1E0,-1.95E0));
#413=LINE('',#412,#411);
#414=DIRECTION('',(-1.E0,0.E0,0.E0));
#415=VECTOR('',#414,5.E-1);
#416=CARTESIAN_POINT('',(-7.365E0,-4.1E0,-2.25E0));
#417=LINE('',#416,#415);
#418=DIRECTION('',(0.E0,-1.E0,0.E0));
#419=VECTOR('',#418,4.6E0);
#420=CARTESIAN_POINT('',(-5.325E0,5.E-1,-1.95E0));
#421=LINE('',#420,#419);
#422=DIRECTION('',(0.E0,-1.E0,0.E0));
#423=VECTOR('',#422,4.6E0);
#424=CARTESIAN_POINT('',(-4.825E0,5.E-1,-1.95E0));
#425=LINE('',#424,#423);
#426=DIRECTION('',(0.E0,-1.E0,0.E0));
#427=VECTOR('',#426,4.6E0);
#428=CARTESIAN_POINT('',(-4.825E0,5.E-1,-2.25E0));
#429=LINE('',#428,#427);
#430=DIRECTION('',(0.E0,-1.E0,0.E0));
#431=VECTOR('',#430,4.6E0);
#432=CARTESIAN_POINT('',(-5.325E0,5.E-1,-2.25E0));
#433=LINE('',#432,#431);
#434=DIRECTION('',(0.E0,0.E0,-1.E0));
#435=VECTOR('',#434,3.E-1);
#436=CARTESIAN_POINT('',(-5.325E0,-4.1E0,-1.95E0));
#437=LINE('',#436,#435);
#438=DIRECTION('',(-1.E0,0.E0,0.E0));
#439=VECTOR('',#438,5.E-1);
#440=CARTESIAN_POINT('',(-4.825E0,-4.1E0,-1.95E0));
#441=LINE('',#440,#439);
#442=DIRECTION('',(0.E0,0.E0,1.E0));
#443=VECTOR('',#442,3.E-1);
#444=CARTESIAN_POINT('',(-4.825E0,-4.1E0,-2.25E0));
#445=LINE('',#444,#443);
#446=DIRECTION('',(1.E0,0.E0,0.E0));
#447=VECTOR('',#446,5.E-1);
#448=CARTESIAN_POINT('',(-5.325E0,-4.1E0,-2.25E0));
#449=LINE('',#448,#447);
#450=DIRECTION('',(0.E0,-1.E0,0.E0));
#451=VECTOR('',#450,4.6E0);
#452=CARTESIAN_POINT('',(-2.45E-1,5.E-1,-1.95E0));
#453=LINE('',#452,#451);
#454=DIRECTION('',(0.E0,-1.E0,0.E0));
#455=VECTOR('',#454,4.6E0);
#456=CARTESIAN_POINT('',(2.55E-1,5.E-1,-1.95E0));
#457=LINE('',#456,#455);
#458=DIRECTION('',(0.E0,-1.E0,0.E0));
#459=VECTOR('',#458,4.6E0);
#460=CARTESIAN_POINT('',(2.55E-1,5.E-1,-2.25E0));
#461=LINE('',#460,#459);
#462=DIRECTION('',(0.E0,-1.E0,0.E0));
#463=VECTOR('',#462,4.6E0);
#464=CARTESIAN_POINT('',(-2.45E-1,5.E-1,-2.25E0));
#465=LINE('',#464,#463);
#466=DIRECTION('',(0.E0,0.E0,-1.E0));
#467=VECTOR('',#466,3.E-1);
#468=CARTESIAN_POINT('',(-2.45E-1,-4.1E0,-1.95E0));
#469=LINE('',#468,#467);
#470=DIRECTION('',(-1.E0,0.E0,0.E0));
#471=VECTOR('',#470,5.E-1);
#472=CARTESIAN_POINT('',(2.55E-1,-4.1E0,-1.95E0));
#473=LINE('',#472,#471);
#474=DIRECTION('',(0.E0,0.E0,1.E0));
#475=VECTOR('',#474,3.E-1);
#476=CARTESIAN_POINT('',(2.55E-1,-4.1E0,-2.25E0));
#477=LINE('',#476,#475);
#478=DIRECTION('',(1.E0,0.E0,0.E0));
#479=VECTOR('',#478,5.E-1);
#480=CARTESIAN_POINT('',(-2.45E-1,-4.1E0,-2.25E0));
#481=LINE('',#480,#479);
#482=DIRECTION('',(0.E0,-1.E0,0.E0));
#483=VECTOR('',#482,4.6E0);
#484=CARTESIAN_POINT('',(2.295E0,5.E-1,-1.95E0));
#485=LINE('',#484,#483);
#486=DIRECTION('',(0.E0,-1.E0,0.E0));
#487=VECTOR('',#486,4.6E0);
#488=CARTESIAN_POINT('',(2.795E0,5.E-1,-1.95E0));
#489=LINE('',#488,#487);
#490=DIRECTION('',(0.E0,-1.E0,0.E0));
#491=VECTOR('',#490,4.6E0);
#492=CARTESIAN_POINT('',(2.795E0,5.E-1,-2.25E0));
#493=LINE('',#492,#491);
#494=DIRECTION('',(0.E0,-1.E0,0.E0));
#495=VECTOR('',#494,4.6E0);
#496=CARTESIAN_POINT('',(2.295E0,5.E-1,-2.25E0));
#497=LINE('',#496,#495);
#498=DIRECTION('',(0.E0,0.E0,-1.E0));
#499=VECTOR('',#498,3.E-1);
#500=CARTESIAN_POINT('',(2.295E0,-4.1E0,-1.95E0));
#501=LINE('',#500,#499);
#502=DIRECTION('',(-1.E0,0.E0,0.E0));
#503=VECTOR('',#502,5.E-1);
#504=CARTESIAN_POINT('',(2.795E0,-4.1E0,-1.95E0));
#505=LINE('',#504,#503);
#506=DIRECTION('',(0.E0,0.E0,1.E0));
#507=VECTOR('',#506,3.E-1);
#508=CARTESIAN_POINT('',(2.795E0,-4.1E0,-2.25E0));
#509=LINE('',#508,#507);
#510=DIRECTION('',(1.E0,0.E0,0.E0));
#511=VECTOR('',#510,5.E-1);
#512=CARTESIAN_POINT('',(2.295E0,-4.1E0,-2.25E0));
#513=LINE('',#512,#511);
#514=DIRECTION('',(0.E0,-1.E0,0.E0));
#515=VECTOR('',#514,4.6E0);
#516=CARTESIAN_POINT('',(4.835E0,5.E-1,-1.95E0));
#517=LINE('',#516,#515);
#518=DIRECTION('',(0.E0,-1.E0,0.E0));
#519=VECTOR('',#518,4.6E0);
#520=CARTESIAN_POINT('',(5.335E0,5.E-1,-1.95E0));
#521=LINE('',#520,#519);
#522=DIRECTION('',(0.E0,-1.E0,0.E0));
#523=VECTOR('',#522,4.6E0);
#524=CARTESIAN_POINT('',(5.335E0,5.E-1,-2.25E0));
#525=LINE('',#524,#523);
#526=DIRECTION('',(0.E0,-1.E0,0.E0));
#527=VECTOR('',#526,4.6E0);
#528=CARTESIAN_POINT('',(4.835E0,5.E-1,-2.25E0));
#529=LINE('',#528,#527);
#530=DIRECTION('',(0.E0,0.E0,-1.E0));
#531=VECTOR('',#530,3.E-1);
#532=CARTESIAN_POINT('',(4.835E0,-4.1E0,-1.95E0));
#533=LINE('',#532,#531);
#534=DIRECTION('',(-1.E0,0.E0,0.E0));
#535=VECTOR('',#534,5.E-1);
#536=CARTESIAN_POINT('',(5.335E0,-4.1E0,-1.95E0));
#537=LINE('',#536,#535);
#538=DIRECTION('',(0.E0,0.E0,1.E0));
#539=VECTOR('',#538,3.E-1);
#540=CARTESIAN_POINT('',(5.335E0,-4.1E0,-2.25E0));
#541=LINE('',#540,#539);
#542=DIRECTION('',(1.E0,0.E0,0.E0));
#543=VECTOR('',#542,5.E-1);
#544=CARTESIAN_POINT('',(4.835E0,-4.1E0,-2.25E0));
#545=LINE('',#544,#543);
#546=CARTESIAN_POINT('',(-9.825E0,0.E0,4.05E0));
#547=CARTESIAN_POINT('',(-9.825E0,0.E0,-3.E0));
#548=VERTEX_POINT('',#546);
#549=VERTEX_POINT('',#547);
#550=CARTESIAN_POINT('',(-9.325E0,0.E0,4.05E0));
#551=VERTEX_POINT('',#550);
#552=CARTESIAN_POINT('',(-9.325E0,0.E0,-3.E0));
#553=VERTEX_POINT('',#552);
#554=CARTESIAN_POINT('',(-9.825E0,1.016E1,-3.E0));
#555=CARTESIAN_POINT('',(-9.825E0,1.016E1,4.05E0));
#556=VERTEX_POINT('',#554);
#557=VERTEX_POINT('',#555);
#558=CARTESIAN_POINT('',(9.825E0,1.016E1,4.05E0));
#559=CARTESIAN_POINT('',(9.825E0,1.016E1,-3.E0));
#560=VERTEX_POINT('',#558);
#561=VERTEX_POINT('',#559);
#562=CARTESIAN_POINT('',(9.825E0,0.E0,4.05E0));
#563=CARTESIAN_POINT('',(9.825E0,0.E0,-3.E0));
#564=VERTEX_POINT('',#562);
#565=VERTEX_POINT('',#563);
#566=CARTESIAN_POINT('',(9.325E0,0.E0,4.05E0));
#567=CARTESIAN_POINT('',(9.325E0,0.E0,-3.E0));
#568=VERTEX_POINT('',#566);
#569=VERTEX_POINT('',#567);
#570=CARTESIAN_POINT('',(9.325E0,5.E-1,4.05E0));
#571=CARTESIAN_POINT('',(9.325E0,5.E-1,-3.E0));
#572=VERTEX_POINT('',#570);
#573=VERTEX_POINT('',#571);
#574=CARTESIAN_POINT('',(-9.325E0,5.E-1,4.05E0));
#575=CARTESIAN_POINT('',(-9.325E0,5.E-1,-3.E0));
#576=VERTEX_POINT('',#574);
#577=VERTEX_POINT('',#575);
#578=CARTESIAN_POINT('',(-7.865E0,5.E-1,-2.25E0));
#579=CARTESIAN_POINT('',(-7.865E0,5.E-1,-1.95E0));
#580=VERTEX_POINT('',#578);
#581=VERTEX_POINT('',#579);
#582=CARTESIAN_POINT('',(-7.365E0,5.E-1,-2.25E0));
#583=VERTEX_POINT('',#582);
#584=CARTESIAN_POINT('',(-7.365E0,5.E-1,-1.95E0));
#585=VERTEX_POINT('',#584);
#586=CARTESIAN_POINT('',(-7.865E0,-4.1E0,-1.95E0));
#587=VERTEX_POINT('',#586);
#588=CARTESIAN_POINT('',(-7.865E0,-4.1E0,-2.25E0));
#589=VERTEX_POINT('',#588);
#590=CARTESIAN_POINT('',(-7.365E0,-4.1E0,-1.95E0));
#591=VERTEX_POINT('',#590);
#592=CARTESIAN_POINT('',(-7.365E0,-4.1E0,-2.25E0));
#593=VERTEX_POINT('',#592);
#594=CARTESIAN_POINT('',(-9.03E0,1.74E0,4.05E0));
#595=CARTESIAN_POINT('',(-8.13E0,1.74E0,4.05E0));
#596=VERTEX_POINT('',#594);
#597=VERTEX_POINT('',#595);
#598=CARTESIAN_POINT('',(-8.13E0,1.74E0,3.98E0));
#599=CARTESIAN_POINT('',(-9.03E0,1.74E0,3.98E0));
#600=VERTEX_POINT('',#598);
#601=VERTEX_POINT('',#599);
#602=CARTESIAN_POINT('',(-5.325E0,-4.1E0,-1.95E0));
#603=CARTESIAN_POINT('',(-5.325E0,-4.1E0,-2.25E0));
#604=VERTEX_POINT('',#602);
#605=VERTEX_POINT('',#603);
#606=CARTESIAN_POINT('',(-4.825E0,-4.1E0,-2.25E0));
#607=VERTEX_POINT('',#606);
#608=CARTESIAN_POINT('',(-4.825E0,-4.1E0,-1.95E0));
#609=VERTEX_POINT('',#608);
#610=CARTESIAN_POINT('',(-5.325E0,5.E-1,-1.95E0));
#611=CARTESIAN_POINT('',(-5.325E0,5.E-1,-2.25E0));
#612=VERTEX_POINT('',#610);
#613=VERTEX_POINT('',#611);
#614=CARTESIAN_POINT('',(-4.825E0,5.E-1,-2.25E0));
#615=VERTEX_POINT('',#614);
#616=CARTESIAN_POINT('',(-4.825E0,5.E-1,-1.95E0));
#617=VERTEX_POINT('',#616);
#618=CARTESIAN_POINT('',(-2.45E-1,-4.1E0,-1.95E0));
#619=CARTESIAN_POINT('',(-2.45E-1,-4.1E0,-2.25E0));
#620=VERTEX_POINT('',#618);
#621=VERTEX_POINT('',#619);
#622=CARTESIAN_POINT('',(2.55E-1,-4.1E0,-2.25E0));
#623=VERTEX_POINT('',#622);
#624=CARTESIAN_POINT('',(2.55E-1,-4.1E0,-1.95E0));
#625=VERTEX_POINT('',#624);
#626=CARTESIAN_POINT('',(-2.45E-1,5.E-1,-1.95E0));
#627=CARTESIAN_POINT('',(-2.45E-1,5.E-1,-2.25E0));
#628=VERTEX_POINT('',#626);
#629=VERTEX_POINT('',#627);
#630=CARTESIAN_POINT('',(2.55E-1,5.E-1,-2.25E0));
#631=VERTEX_POINT('',#630);
#632=CARTESIAN_POINT('',(2.55E-1,5.E-1,-1.95E0));
#633=VERTEX_POINT('',#632);
#634=CARTESIAN_POINT('',(2.295E0,-4.1E0,-1.95E0));
#635=CARTESIAN_POINT('',(2.295E0,-4.1E0,-2.25E0));
#636=VERTEX_POINT('',#634);
#637=VERTEX_POINT('',#635);
#638=CARTESIAN_POINT('',(2.795E0,-4.1E0,-2.25E0));
#639=VERTEX_POINT('',#638);
#640=CARTESIAN_POINT('',(2.795E0,-4.1E0,-1.95E0));
#641=VERTEX_POINT('',#640);
#642=CARTESIAN_POINT('',(2.295E0,5.E-1,-1.95E0));
#643=CARTESIAN_POINT('',(2.295E0,5.E-1,-2.25E0));
#644=VERTEX_POINT('',#642);
#645=VERTEX_POINT('',#643);
#646=CARTESIAN_POINT('',(2.795E0,5.E-1,-2.25E0));
#647=VERTEX_POINT('',#646);
#648=CARTESIAN_POINT('',(2.795E0,5.E-1,-1.95E0));
#649=VERTEX_POINT('',#648);
#650=CARTESIAN_POINT('',(4.835E0,-4.1E0,-1.95E0));
#651=CARTESIAN_POINT('',(4.835E0,-4.1E0,-2.25E0));
#652=VERTEX_POINT('',#650);
#653=VERTEX_POINT('',#651);
#654=CARTESIAN_POINT('',(5.335E0,-4.1E0,-2.25E0));
#655=VERTEX_POINT('',#654);
#656=CARTESIAN_POINT('',(5.335E0,-4.1E0,-1.95E0));
#657=VERTEX_POINT('',#656);
#658=CARTESIAN_POINT('',(4.835E0,5.E-1,-1.95E0));
#659=CARTESIAN_POINT('',(4.835E0,5.E-1,-2.25E0));
#660=VERTEX_POINT('',#658);
#661=VERTEX_POINT('',#659);
#662=CARTESIAN_POINT('',(5.335E0,5.E-1,-2.25E0));
#663=VERTEX_POINT('',#662);
#664=CARTESIAN_POINT('',(5.335E0,5.E-1,-1.95E0));
#665=VERTEX_POINT('',#664);
#666=CARTESIAN_POINT('',(0.E0,0.E0,0.E0));
#667=DIRECTION('',(0.E0,1.E0,0.E0));
#668=DIRECTION('',(1.E0,0.E0,0.E0));
#669=AXIS2_PLACEMENT_3D('',#666,#667,#668);
#670=PLANE('',#669);
#672=ORIENTED_EDGE('',*,*,#671,.F.);
#674=ORIENTED_EDGE('',*,*,#673,.F.);
#676=ORIENTED_EDGE('',*,*,#675,.T.);
#678=ORIENTED_EDGE('',*,*,#677,.F.);
#679=EDGE_LOOP('',(#672,#674,#676,#678));
#680=FACE_OUTER_BOUND('',#679,.F.);
#681=ADVANCED_FACE('',(#680),#670,.F.);
#682=FILL_AREA_STYLE_COLOUR('',#55);
#683=FILL_AREA_STYLE('',(#682));
#684=SURFACE_STYLE_FILL_AREA(#683);
#685=SURFACE_SIDE_STYLE('',(#684));
#686=SURFACE_STYLE_USAGE(.POSITIVE.,#685);
#687=PRESENTATION_STYLE_ASSIGNMENT((#686));
#688=STYLED_ITEM('',(#687),#681);
#689=CARTESIAN_POINT('',(-9.825E0,0.E0,-3.E0));
#690=DIRECTION('',(-1.E0,0.E0,0.E0));
#691=DIRECTION('',(0.E0,0.E0,1.E0));
#692=AXIS2_PLACEMENT_3D('',#689,#690,#691);
#693=PLANE('',#692);
#695=ORIENTED_EDGE('',*,*,#694,.T.);
#697=ORIENTED_EDGE('',*,*,#696,.F.);
#698=ORIENTED_EDGE('',*,*,#671,.T.);
#700=ORIENTED_EDGE('',*,*,#699,.F.);
#701=EDGE_LOOP('',(#695,#697,#698,#700));
#702=FACE_OUTER_BOUND('',#701,.F.);
#703=ADVANCED_FACE('',(#702),#693,.T.);
#704=FILL_AREA_STYLE_COLOUR('',#55);
#705=FILL_AREA_STYLE('',(#704));
#706=SURFACE_STYLE_FILL_AREA(#705);
#707=SURFACE_SIDE_STYLE('',(#706));
#708=SURFACE_STYLE_USAGE(.POSITIVE.,#707);
#709=PRESENTATION_STYLE_ASSIGNMENT((#708));
#710=STYLED_ITEM('',(#709),#703);
#711=CARTESIAN_POINT('',(0.E0,1.016E1,0.E0));
#712=DIRECTION('',(0.E0,1.E0,0.E0));
#713=DIRECTION('',(1.E0,0.E0,0.E0));
#714=AXIS2_PLACEMENT_3D('',#711,#712,#713);
#715=PLANE('',#714);
#717=ORIENTED_EDGE('',*,*,#716,.F.);
#719=ORIENTED_EDGE('',*,*,#718,.F.);
#720=ORIENTED_EDGE('',*,*,#694,.F.);
#722=ORIENTED_EDGE('',*,*,#721,.T.);
#723=EDGE_LOOP('',(#717,#719,#720,#722));
#724=FACE_OUTER_BOUND('',#723,.F.);
#725=ADVANCED_FACE('',(#724),#715,.T.);
#726=FILL_AREA_STYLE_COLOUR('',#55);
#727=FILL_AREA_STYLE('',(#726));
#728=SURFACE_STYLE_FILL_AREA(#727);
#729=SURFACE_SIDE_STYLE('',(#728));
#730=SURFACE_STYLE_USAGE(.POSITIVE.,#729);
#731=PRESENTATION_STYLE_ASSIGNMENT((#730));
#732=STYLED_ITEM('',(#731),#725);
#733=CARTESIAN_POINT('',(9.825E0,0.E0,3.E0));
#734=DIRECTION('',(1.E0,0.E0,0.E0));
#735=DIRECTION('',(0.E0,0.E0,-1.E0));
#736=AXIS2_PLACEMENT_3D('',#733,#734,#735);
#737=PLANE('',#736);
#739=ORIENTED_EDGE('',*,*,#738,.F.);
#741=ORIENTED_EDGE('',*,*,#740,.F.);
#742=ORIENTED_EDGE('',*,*,#716,.T.);
#744=ORIENTED_EDGE('',*,*,#743,.T.);
#745=EDGE_LOOP('',(#739,#741,#742,#744));
#746=FACE_OUTER_BOUND('',#745,.F.);
#747=ADVANCED_FACE('',(#746),#737,.T.);
#748=FILL_AREA_STYLE_COLOUR('',#55);
#749=FILL_AREA_STYLE('',(#748));
#750=SURFACE_STYLE_FILL_AREA(#749);
#751=SURFACE_SIDE_STYLE('',(#750));
#752=SURFACE_STYLE_USAGE(.POSITIVE.,#751);
#753=PRESENTATION_STYLE_ASSIGNMENT((#752));
#754=STYLED_ITEM('',(#753),#747);
#755=CARTESIAN_POINT('',(0.E0,0.E0,0.E0));
#756=DIRECTION('',(0.E0,1.E0,0.E0));
#757=DIRECTION('',(1.E0,0.E0,0.E0));
#758=AXIS2_PLACEMENT_3D('',#755,#756,#757);
#759=PLANE('',#758);
#761=ORIENTED_EDGE('',*,*,#760,.F.);
#763=ORIENTED_EDGE('',*,*,#762,.F.);
#764=ORIENTED_EDGE('',*,*,#738,.T.);
#766=ORIENTED_EDGE('',*,*,#765,.F.);
#767=EDGE_LOOP('',(#761,#763,#764,#766));
#768=FACE_OUTER_BOUND('',#767,.F.);
#769=ADVANCED_FACE('',(#768),#759,.F.);
#770=FILL_AREA_STYLE_COLOUR('',#55);
#771=FILL_AREA_STYLE('',(#770));
#772=SURFACE_STYLE_FILL_AREA(#771);
#773=SURFACE_SIDE_STYLE('',(#772));
#774=SURFACE_STYLE_USAGE(.POSITIVE.,#773);
#775=PRESENTATION_STYLE_ASSIGNMENT((#774));
#776=STYLED_ITEM('',(#775),#769);
#777=CARTESIAN_POINT('',(9.325E0,0.E0,-3.E0));
#778=DIRECTION('',(1.E0,0.E0,0.E0));
#779=DIRECTION('',(0.E0,0.E0,1.E0));
#780=AXIS2_PLACEMENT_3D('',#777,#778,#779);
#781=PLANE('',#780);
#783=ORIENTED_EDGE('',*,*,#782,.F.);
#785=ORIENTED_EDGE('',*,*,#784,.F.);
#786=ORIENTED_EDGE('',*,*,#760,.T.);
#788=ORIENTED_EDGE('',*,*,#787,.F.);
#789=EDGE_LOOP('',(#783,#785,#786,#788));
#790=FACE_OUTER_BOUND('',#789,.F.);
#791=ADVANCED_FACE('',(#790),#781,.F.);
#792=FILL_AREA_STYLE_COLOUR('',#55);
#793=FILL_AREA_STYLE('',(#792));
#794=SURFACE_STYLE_FILL_AREA(#793);
#795=SURFACE_SIDE_STYLE('',(#794));
#796=SURFACE_STYLE_USAGE(.POSITIVE.,#795);
#797=PRESENTATION_STYLE_ASSIGNMENT((#796));
#798=STYLED_ITEM('',(#797),#791);
#799=CARTESIAN_POINT('',(0.E0,5.E-1,0.E0));
#800=DIRECTION('',(0.E0,-1.E0,0.E0));
#801=DIRECTION('',(1.E0,0.E0,0.E0));
#802=AXIS2_PLACEMENT_3D('',#799,#800,#801);
#803=PLANE('',#802);
#805=ORIENTED_EDGE('',*,*,#804,.F.);
#807=ORIENTED_EDGE('',*,*,#806,.F.);
#808=ORIENTED_EDGE('',*,*,#782,.T.);
#810=ORIENTED_EDGE('',*,*,#809,.T.);
#811=EDGE_LOOP('',(#805,#807,#808,#810));
#812=FACE_OUTER_BOUND('',#811,.F.);
#814=ORIENTED_EDGE('',*,*,#813,.F.);
#816=ORIENTED_EDGE('',*,*,#815,.F.);
#818=ORIENTED_EDGE('',*,*,#817,.F.);
#820=ORIENTED_EDGE('',*,*,#819,.F.);
#821=EDGE_LOOP('',(#814,#816,#818,#820));
#822=FACE_BOUND('',#821,.F.);
#824=ORIENTED_EDGE('',*,*,#823,.T.);
#826=ORIENTED_EDGE('',*,*,#825,.T.);
#828=ORIENTED_EDGE('',*,*,#827,.T.);
#830=ORIENTED_EDGE('',*,*,#829,.T.);
#831=EDGE_LOOP('',(#824,#826,#828,#830));
#832=FACE_BOUND('',#831,.F.);
#834=ORIENTED_EDGE('',*,*,#833,.T.);
#836=ORIENTED_EDGE('',*,*,#835,.T.);
#838=ORIENTED_EDGE('',*,*,#837,.T.);
#840=ORIENTED_EDGE('',*,*,#839,.T.);
#841=EDGE_LOOP('',(#834,#836,#838,#840));
#842=FACE_BOUND('',#841,.F.);
#844=ORIENTED_EDGE('',*,*,#843,.T.);
#846=ORIENTED_EDGE('',*,*,#845,.T.);
#848=ORIENTED_EDGE('',*,*,#847,.T.);
#850=ORIENTED_EDGE('',*,*,#849,.T.);
#851=EDGE_LOOP('',(#844,#846,#848,#850));
#852=FACE_BOUND('',#851,.F.);
#854=ORIENTED_EDGE('',*,*,#853,.T.);
#856=ORIENTED_EDGE('',*,*,#855,.T.);
#858=ORIENTED_EDGE('',*,*,#857,.T.);
#860=ORIENTED_EDGE('',*,*,#859,.T.);
#861=EDGE_LOOP('',(#854,#856,#858,#860));
#862=FACE_BOUND('',#861,.F.);
#863=ADVANCED_FACE('',(#812,#822,#832,#842,#852,#862),#803,.T.);
#864=FILL_AREA_STYLE_COLOUR('',#55);
#865=FILL_AREA_STYLE('',(#864));
#866=SURFACE_STYLE_FILL_AREA(#865);
#867=SURFACE_SIDE_STYLE('',(#866));
#868=SURFACE_STYLE_USAGE(.POSITIVE.,#867);
#869=PRESENTATION_STYLE_ASSIGNMENT((#868));
#870=STYLED_ITEM('',(#869),#863);
#871=CARTESIAN_POINT('',(-9.325E0,0.E0,3.E0));
#872=DIRECTION('',(-1.E0,0.E0,0.E0));
#873=DIRECTION('',(0.E0,0.E0,-1.E0));
#874=AXIS2_PLACEMENT_3D('',#871,#872,#873);
#875=PLANE('',#874);
#876=ORIENTED_EDGE('',*,*,#675,.F.);
#878=ORIENTED_EDGE('',*,*,#877,.F.);
#879=ORIENTED_EDGE('',*,*,#804,.T.);
#881=ORIENTED_EDGE('',*,*,#880,.T.);
#882=EDGE_LOOP('',(#876,#878,#879,#881));
#883=FACE_OUTER_BOUND('',#882,.F.);
#884=ADVANCED_FACE('',(#883),#875,.F.);
#885=FILL_AREA_STYLE_COLOUR('',#55);
#886=FILL_AREA_STYLE('',(#885));
#887=SURFACE_STYLE_FILL_AREA(#886);
#888=SURFACE_SIDE_STYLE('',(#887));
#889=SURFACE_STYLE_USAGE(.POSITIVE.,#888);
#890=PRESENTATION_STYLE_ASSIGNMENT((#889));
#891=STYLED_ITEM('',(#890),#884);
#892=CARTESIAN_POINT('',(0.E0,0.E0,4.05E0));
#893=DIRECTION('',(0.E0,0.E0,1.E0));
#894=DIRECTION('',(1.E0,0.E0,0.E0));
#895=AXIS2_PLACEMENT_3D('',#892,#893,#894);
#896=PLANE('',#895);
#897=ORIENTED_EDGE('',*,*,#696,.T.);
#898=ORIENTED_EDGE('',*,*,#718,.T.);
#899=ORIENTED_EDGE('',*,*,#740,.T.);
#900=ORIENTED_EDGE('',*,*,#762,.T.);
#901=ORIENTED_EDGE('',*,*,#784,.T.);
#902=ORIENTED_EDGE('',*,*,#806,.T.);
#903=ORIENTED_EDGE('',*,*,#877,.T.);
#904=ORIENTED_EDGE('',*,*,#673,.T.);
#905=EDGE_LOOP('',(#897,#898,#899,#900,#901,#902,#903,#904));
#906=FACE_OUTER_BOUND('',#905,.F.);
#908=ORIENTED_EDGE('',*,*,#907,.T.);
#910=ORIENTED_EDGE('',*,*,#909,.T.);
#911=EDGE_LOOP('',(#908,#910));
#912=FACE_BOUND('',#911,.F.);
#913=ADVANCED_FACE('',(#906,#912),#896,.T.);
#914=FILL_AREA_STYLE_COLOUR('',#55);
#915=FILL_AREA_STYLE('',(#914));
#916=SURFACE_STYLE_FILL_AREA(#915);
#917=SURFACE_SIDE_STYLE('',(#916));
#918=SURFACE_STYLE_USAGE(.POSITIVE.,#917);
#919=PRESENTATION_STYLE_ASSIGNMENT((#918));
#920=STYLED_ITEM('',(#919),#913);
#921=CARTESIAN_POINT('',(-8.58E0,1.74E0,3.E0));
#922=DIRECTION('',(0.E0,0.E0,1.E0));
#923=DIRECTION('',(1.E0,0.E0,0.E0));
#924=AXIS2_PLACEMENT_3D('',#921,#922,#923);
#925=CYLINDRICAL_SURFACE('',#924,4.5E-1);
#927=ORIENTED_EDGE('',*,*,#926,.F.);
#929=ORIENTED_EDGE('',*,*,#928,.T.);
#930=ORIENTED_EDGE('',*,*,#907,.F.);
#932=ORIENTED_EDGE('',*,*,#931,.T.);
#933=EDGE_LOOP('',(#927,#929,#930,#932));
#934=FACE_OUTER_BOUND('',#933,.F.);
#935=ADVANCED_FACE('',(#934),#925,.F.);
#936=CARTESIAN_POINT('',(0.E0,0.E0,3.98E0));
#937=DIRECTION('',(0.E0,0.E0,1.E0));
#938=DIRECTION('',(1.E0,0.E0,0.E0));
#939=AXIS2_PLACEMENT_3D('',#936,#937,#938);
#940=PLANE('',#939);
#942=ORIENTED_EDGE('',*,*,#941,.T.);
#943=ORIENTED_EDGE('',*,*,#926,.T.);
#944=EDGE_LOOP('',(#942,#943));
#945=FACE_OUTER_BOUND('',#944,.F.);
#946=ADVANCED_FACE('',(#945),#940,.T.);
#947=CARTESIAN_POINT('',(-8.58E0,1.74E0,3.E0));
#948=DIRECTION('',(0.E0,0.E0,1.E0));
#949=DIRECTION('',(1.E0,0.E0,0.E0));
#950=AXIS2_PLACEMENT_3D('',#947,#948,#949);
#951=CYLINDRICAL_SURFACE('',#950,4.5E-1);
#952=ORIENTED_EDGE('',*,*,#941,.F.);
#953=ORIENTED_EDGE('',*,*,#931,.F.);
#954=ORIENTED_EDGE('',*,*,#909,.F.);
#955=ORIENTED_EDGE('',*,*,#928,.F.);
#956=EDGE_LOOP('',(#952,#953,#954,#955));
#957=FACE_OUTER_BOUND('',#956,.F.);
#958=ADVANCED_FACE('',(#957),#951,.F.);
#959=CARTESIAN_POINT('',(9.825E0,0.E0,-3.E0));
#960=DIRECTION('',(0.E0,0.E0,-1.E0));
#961=DIRECTION('',(-1.E0,0.E0,0.E0));
#962=AXIS2_PLACEMENT_3D('',#959,#960,#961);
#963=PLANE('',#962);
#964=ORIENTED_EDGE('',*,*,#809,.F.);
#965=ORIENTED_EDGE('',*,*,#787,.T.);
#966=ORIENTED_EDGE('',*,*,#765,.T.);
#967=ORIENTED_EDGE('',*,*,#743,.F.);
#968=ORIENTED_EDGE('',*,*,#721,.F.);
#969=ORIENTED_EDGE('',*,*,#699,.T.);
#970=ORIENTED_EDGE('',*,*,#677,.T.);
#971=ORIENTED_EDGE('',*,*,#880,.F.);
#972=EDGE_LOOP('',(#964,#965,#966,#967,#968,#969,#970,#971));
#973=FACE_OUTER_BOUND('',#972,.F.);
#974=ADVANCED_FACE('',(#973),#963,.T.);
#975=FILL_AREA_STYLE_COLOUR('',#55);
#976=FILL_AREA_STYLE('',(#975));
#977=SURFACE_STYLE_FILL_AREA(#976);
#978=SURFACE_SIDE_STYLE('',(#977));
#979=SURFACE_STYLE_USAGE(.POSITIVE.,#978);
#980=PRESENTATION_STYLE_ASSIGNMENT((#979));
#981=STYLED_ITEM('',(#980),#974);
#982=CARTESIAN_POINT('',(-7.865E0,5.E-1,-1.95E0));
#983=DIRECTION('',(-1.E0,0.E0,0.E0));
#984=DIRECTION('',(0.E0,0.E0,-1.E0));
#985=AXIS2_PLACEMENT_3D('',#982,#983,#984);
#986=PLANE('',#985);
#987=ORIENTED_EDGE('',*,*,#813,.T.);
#989=ORIENTED_EDGE('',*,*,#988,.F.);
#991=ORIENTED_EDGE('',*,*,#990,.F.);
#993=ORIENTED_EDGE('',*,*,#992,.T.);
#994=EDGE_LOOP('',(#987,#989,#991,#993));
#995=FACE_OUTER_BOUND('',#994,.F.);
#996=ADVANCED_FACE('',(#995),#986,.T.);
#997=CARTESIAN_POINT('',(-7.365E0,5.E-1,-1.95E0));
#998=DIRECTION('',(0.E0,0.E0,1.E0));
#999=DIRECTION('',(-1.E0,0.E0,0.E0));
#1000=AXIS2_PLACEMENT_3D('',#997,#998,#999);
#1001=PLANE('',#1000);
#1002=ORIENTED_EDGE('',*,*,#819,.T.);
#1004=ORIENTED_EDGE('',*,*,#1003,.F.);
#1006=ORIENTED_EDGE('',*,*,#1005,.F.);
#1007=ORIENTED_EDGE('',*,*,#988,.T.);
#1008=EDGE_LOOP('',(#1002,#1004,#1006,#1007));
#1009=FACE_OUTER_BOUND('',#1008,.F.);
#1010=ADVANCED_FACE('',(#1009),#1001,.T.);
#1011=CARTESIAN_POINT('',(-7.365E0,5.E-1,-2.25E0));
#1012=DIRECTION('',(1.E0,0.E0,0.E0));
#1013=DIRECTION('',(0.E0,0.E0,1.E0));
#1014=AXIS2_PLACEMENT_3D('',#1011,#1012,#1013);
#1015=PLANE('',#1014);
#1016=ORIENTED_EDGE('',*,*,#817,.T.);
#1018=ORIENTED_EDGE('',*,*,#1017,.F.);
#1020=ORIENTED_EDGE('',*,*,#1019,.F.);
#1021=ORIENTED_EDGE('',*,*,#1003,.T.);
#1022=EDGE_LOOP('',(#1016,#1018,#1020,#1021));
#1023=FACE_OUTER_BOUND('',#1022,.F.);
#1024=ADVANCED_FACE('',(#1023),#1015,.T.);
#1025=CARTESIAN_POINT('',(-7.865E0,5.E-1,-2.25E0));
#1026=DIRECTION('',(0.E0,0.E0,-1.E0));
#1027=DIRECTION('',(1.E0,0.E0,0.E0));
#1028=AXIS2_PLACEMENT_3D('',#1025,#1026,#1027);
#1029=PLANE('',#1028);
#1030=ORIENTED_EDGE('',*,*,#815,.T.);
#1031=ORIENTED_EDGE('',*,*,#992,.F.);
#1033=ORIENTED_EDGE('',*,*,#1032,.F.);
#1034=ORIENTED_EDGE('',*,*,#1017,.T.);
#1035=EDGE_LOOP('',(#1030,#1031,#1033,#1034));
#1036=FACE_OUTER_BOUND('',#1035,.F.);
#1037=ADVANCED_FACE('',(#1036),#1029,.T.);
#1038=CARTESIAN_POINT('',(0.E0,-4.1E0,0.E0));
#1039=DIRECTION('',(0.E0,-1.E0,0.E0));
#1040=DIRECTION('',(1.E0,0.E0,0.E0));
#1041=AXIS2_PLACEMENT_3D('',#1038,#1039,#1040);
#1042=PLANE('',#1041);
#1043=ORIENTED_EDGE('',*,*,#990,.T.);
#1044=ORIENTED_EDGE('',*,*,#1005,.T.);
#1045=ORIENTED_EDGE('',*,*,#1019,.T.);
#1046=ORIENTED_EDGE('',*,*,#1032,.T.);
#1047=EDGE_LOOP('',(#1043,#1044,#1045,#1046));
#1048=FACE_OUTER_BOUND('',#1047,.F.);
#1049=ADVANCED_FACE('',(#1048),#1042,.T.);
#1050=CARTESIAN_POINT('',(-5.325E0,5.E-1,-1.95E0));
#1051=DIRECTION('',(-1.E0,0.E0,0.E0));
#1052=DIRECTION('',(0.E0,0.E0,-1.E0));
#1053=AXIS2_PLACEMENT_3D('',#1050,#1051,#1052);
#1054=PLANE('',#1053);
#1055=ORIENTED_EDGE('',*,*,#823,.F.);
#1057=ORIENTED_EDGE('',*,*,#1056,.T.);
#1059=ORIENTED_EDGE('',*,*,#1058,.T.);
#1061=ORIENTED_EDGE('',*,*,#1060,.F.);
#1062=EDGE_LOOP('',(#1055,#1057,#1059,#1061));
#1063=FACE_OUTER_BOUND('',#1062,.F.);
#1064=ADVANCED_FACE('',(#1063),#1054,.T.);
#1065=CARTESIAN_POINT('',(-4.825E0,5.E-1,-1.95E0));
#1066=DIRECTION('',(0.E0,0.E0,1.E0));
#1067=DIRECTION('',(-1.E0,0.E0,0.E0));
#1068=AXIS2_PLACEMENT_3D('',#1065,#1066,#1067);
#1069=PLANE('',#1068);
#1070=ORIENTED_EDGE('',*,*,#829,.F.);
#1072=ORIENTED_EDGE('',*,*,#1071,.T.);
#1074=ORIENTED_EDGE('',*,*,#1073,.T.);
#1075=ORIENTED_EDGE('',*,*,#1056,.F.);
#1076=EDGE_LOOP('',(#1070,#1072,#1074,#1075));
#1077=FACE_OUTER_BOUND('',#1076,.F.);
#1078=ADVANCED_FACE('',(#1077),#1069,.T.);
#1079=CARTESIAN_POINT('',(-4.825E0,5.E-1,-2.25E0));
#1080=DIRECTION('',(1.E0,0.E0,0.E0));
#1081=DIRECTION('',(0.E0,0.E0,1.E0));
#1082=AXIS2_PLACEMENT_3D('',#1079,#1080,#1081);
#1083=PLANE('',#1082);
#1084=ORIENTED_EDGE('',*,*,#827,.F.);
#1086=ORIENTED_EDGE('',*,*,#1085,.T.);
#1088=ORIENTED_EDGE('',*,*,#1087,.T.);
#1089=ORIENTED_EDGE('',*,*,#1071,.F.);
#1090=EDGE_LOOP('',(#1084,#1086,#1088,#1089));
#1091=FACE_OUTER_BOUND('',#1090,.F.);
#1092=ADVANCED_FACE('',(#1091),#1083,.T.);
#1093=CARTESIAN_POINT('',(-5.325E0,5.E-1,-2.25E0));
#1094=DIRECTION('',(0.E0,0.E0,-1.E0));
#1095=DIRECTION('',(1.E0,0.E0,0.E0));
#1096=AXIS2_PLACEMENT_3D('',#1093,#1094,#1095);
#1097=PLANE('',#1096);
#1098=ORIENTED_EDGE('',*,*,#825,.F.);
#1099=ORIENTED_EDGE('',*,*,#1060,.T.);
#1101=ORIENTED_EDGE('',*,*,#1100,.T.);
#1102=ORIENTED_EDGE('',*,*,#1085,.F.);
#1103=EDGE_LOOP('',(#1098,#1099,#1101,#1102));
#1104=FACE_OUTER_BOUND('',#1103,.F.);
#1105=ADVANCED_FACE('',(#1104),#1097,.T.);
#1106=CARTESIAN_POINT('',(0.E0,-4.1E0,0.E0));
#1107=DIRECTION('',(0.E0,-1.E0,0.E0));
#1108=DIRECTION('',(1.E0,0.E0,0.E0));
#1109=AXIS2_PLACEMENT_3D('',#1106,#1107,#1108);
#1110=PLANE('',#1109);
#1111=ORIENTED_EDGE('',*,*,#1058,.F.);
#1112=ORIENTED_EDGE('',*,*,#1073,.F.);
#1113=ORIENTED_EDGE('',*,*,#1087,.F.);
#1114=ORIENTED_EDGE('',*,*,#1100,.F.);
#1115=EDGE_LOOP('',(#1111,#1112,#1113,#1114));
#1116=FACE_OUTER_BOUND('',#1115,.F.);
#1117=ADVANCED_FACE('',(#1116),#1110,.T.);
#1118=CARTESIAN_POINT('',(-2.45E-1,5.E-1,-1.95E0));
#1119=DIRECTION('',(-1.E0,0.E0,0.E0));
#1120=DIRECTION('',(0.E0,0.E0,-1.E0));
#1121=AXIS2_PLACEMENT_3D('',#1118,#1119,#1120);
#1122=PLANE('',#1121);
#1123=ORIENTED_EDGE('',*,*,#833,.F.);
#1125=ORIENTED_EDGE('',*,*,#1124,.T.);
#1127=ORIENTED_EDGE('',*,*,#1126,.T.);
#1129=ORIENTED_EDGE('',*,*,#1128,.F.);
#1130=EDGE_LOOP('',(#1123,#1125,#1127,#1129));
#1131=FACE_OUTER_BOUND('',#1130,.F.);
#1132=ADVANCED_FACE('',(#1131),#1122,.T.);
#1133=CARTESIAN_POINT('',(2.55E-1,5.E-1,-1.95E0));
#1134=DIRECTION('',(0.E0,0.E0,1.E0));
#1135=DIRECTION('',(-1.E0,0.E0,0.E0));
#1136=AXIS2_PLACEMENT_3D('',#1133,#1134,#1135);
#1137=PLANE('',#1136);
#1138=ORIENTED_EDGE('',*,*,#839,.F.);
#1140=ORIENTED_EDGE('',*,*,#1139,.T.);
#1142=ORIENTED_EDGE('',*,*,#1141,.T.);
#1143=ORIENTED_EDGE('',*,*,#1124,.F.);
#1144=EDGE_LOOP('',(#1138,#1140,#1142,#1143));
#1145=FACE_OUTER_BOUND('',#1144,.F.);
#1146=ADVANCED_FACE('',(#1145),#1137,.T.);
#1147=CARTESIAN_POINT('',(2.55E-1,5.E-1,-2.25E0));
#1148=DIRECTION('',(1.E0,0.E0,0.E0));
#1149=DIRECTION('',(0.E0,0.E0,1.E0));
#1150=AXIS2_PLACEMENT_3D('',#1147,#1148,#1149);
#1151=PLANE('',#1150);
#1152=ORIENTED_EDGE('',*,*,#837,.F.);
#1154=ORIENTED_EDGE('',*,*,#1153,.T.);
#1156=ORIENTED_EDGE('',*,*,#1155,.T.);
#1157=ORIENTED_EDGE('',*,*,#1139,.F.);
#1158=EDGE_LOOP('',(#1152,#1154,#1156,#1157));
#1159=FACE_OUTER_BOUND('',#1158,.F.);
#1160=ADVANCED_FACE('',(#1159),#1151,.T.);
#1161=CARTESIAN_POINT('',(-2.45E-1,5.E-1,-2.25E0));
#1162=DIRECTION('',(0.E0,0.E0,-1.E0));
#1163=DIRECTION('',(1.E0,0.E0,0.E0));
#1164=AXIS2_PLACEMENT_3D('',#1161,#1162,#1163);
#1165=PLANE('',#1164);
#1166=ORIENTED_EDGE('',*,*,#835,.F.);
#1167=ORIENTED_EDGE('',*,*,#1128,.T.);
#1169=ORIENTED_EDGE('',*,*,#1168,.T.);
#1170=ORIENTED_EDGE('',*,*,#1153,.F.);
#1171=EDGE_LOOP('',(#1166,#1167,#1169,#1170));
#1172=FACE_OUTER_BOUND('',#1171,.F.);
#1173=ADVANCED_FACE('',(#1172),#1165,.T.);
#1174=CARTESIAN_POINT('',(5.08E0,-4.1E0,0.E0));
#1175=DIRECTION('',(0.E0,-1.E0,0.E0));
#1176=DIRECTION('',(1.E0,0.E0,0.E0));
#1177=AXIS2_PLACEMENT_3D('',#1174,#1175,#1176);
#1178=PLANE('',#1177);
#1179=ORIENTED_EDGE('',*,*,#1126,.F.);
#1180=ORIENTED_EDGE('',*,*,#1141,.F.);
#1181=ORIENTED_EDGE('',*,*,#1155,.F.);
#1182=ORIENTED_EDGE('',*,*,#1168,.F.);
#1183=EDGE_LOOP('',(#1179,#1180,#1181,#1182));
#1184=FACE_OUTER_BOUND('',#1183,.F.);
#1185=ADVANCED_FACE('',(#1184),#1178,.T.);
#1186=CARTESIAN_POINT('',(2.295E0,5.E-1,-1.95E0));
#1187=DIRECTION('',(-1.E0,0.E0,0.E0));
#1188=DIRECTION('',(0.E0,0.E0,-1.E0));
#1189=AXIS2_PLACEMENT_3D('',#1186,#1187,#1188);
#1190=PLANE('',#1189);
#1191=ORIENTED_EDGE('',*,*,#843,.F.);
#1193=ORIENTED_EDGE('',*,*,#1192,.T.);
#1195=ORIENTED_EDGE('',*,*,#1194,.T.);
#1197=ORIENTED_EDGE('',*,*,#1196,.F.);
#1198=EDGE_LOOP('',(#1191,#1193,#1195,#1197));
#1199=FACE_OUTER_BOUND('',#1198,.F.);
#1200=ADVANCED_FACE('',(#1199),#1190,.T.);
#1201=CARTESIAN_POINT('',(2.795E0,5.E-1,-1.95E0));
#1202=DIRECTION('',(0.E0,0.E0,1.E0));
#1203=DIRECTION('',(-1.E0,0.E0,0.E0));
#1204=AXIS2_PLACEMENT_3D('',#1201,#1202,#1203);
#1205=PLANE('',#1204);
#1206=ORIENTED_EDGE('',*,*,#849,.F.);
#1208=ORIENTED_EDGE('',*,*,#1207,.T.);
#1210=ORIENTED_EDGE('',*,*,#1209,.T.);
#1211=ORIENTED_EDGE('',*,*,#1192,.F.);
#1212=EDGE_LOOP('',(#1206,#1208,#1210,#1211));
#1213=FACE_OUTER_BOUND('',#1212,.F.);
#1214=ADVANCED_FACE('',(#1213),#1205,.T.);
#1215=CARTESIAN_POINT('',(2.795E0,5.E-1,-2.25E0));
#1216=DIRECTION('',(1.E0,0.E0,0.E0));
#1217=DIRECTION('',(0.E0,0.E0,1.E0));
#1218=AXIS2_PLACEMENT_3D('',#1215,#1216,#1217);
#1219=PLANE('',#1218);
#1220=ORIENTED_EDGE('',*,*,#847,.F.);
#1222=ORIENTED_EDGE('',*,*,#1221,.T.);
#1224=ORIENTED_EDGE('',*,*,#1223,.T.);
#1225=ORIENTED_EDGE('',*,*,#1207,.F.);
#1226=EDGE_LOOP('',(#1220,#1222,#1224,#1225));
#1227=FACE_OUTER_BOUND('',#1226,.F.);
#1228=ADVANCED_FACE('',(#1227),#1219,.T.);
#1229=CARTESIAN_POINT('',(2.295E0,5.E-1,-2.25E0));
#1230=DIRECTION('',(0.E0,0.E0,-1.E0));
#1231=DIRECTION('',(1.E0,0.E0,0.E0));
#1232=AXIS2_PLACEMENT_3D('',#1229,#1230,#1231);
#1233=PLANE('',#1232);
#1234=ORIENTED_EDGE('',*,*,#845,.F.);
#1235=ORIENTED_EDGE('',*,*,#1196,.T.);
#1237=ORIENTED_EDGE('',*,*,#1236,.T.);
#1238=ORIENTED_EDGE('',*,*,#1221,.F.);
#1239=EDGE_LOOP('',(#1234,#1235,#1237,#1238));
#1240=FACE_OUTER_BOUND('',#1239,.F.);
#1241=ADVANCED_FACE('',(#1240),#1233,.T.);
#1242=CARTESIAN_POINT('',(7.62E0,-4.1E0,0.E0));
#1243=DIRECTION('',(0.E0,-1.E0,0.E0));
#1244=DIRECTION('',(1.E0,0.E0,0.E0));
#1245=AXIS2_PLACEMENT_3D('',#1242,#1243,#1244);
#1246=PLANE('',#1245);
#1247=ORIENTED_EDGE('',*,*,#1194,.F.);
#1248=ORIENTED_EDGE('',*,*,#1209,.F.);
#1249=ORIENTED_EDGE('',*,*,#1223,.F.);
#1250=ORIENTED_EDGE('',*,*,#1236,.F.);
#1251=EDGE_LOOP('',(#1247,#1248,#1249,#1250));
#1252=FACE_OUTER_BOUND('',#1251,.F.);
#1253=ADVANCED_FACE('',(#1252),#1246,.T.);
#1254=CARTESIAN_POINT('',(4.835E0,5.E-1,-1.95E0));
#1255=DIRECTION('',(-1.E0,0.E0,0.E0));
#1256=DIRECTION('',(0.E0,0.E0,-1.E0));
#1257=AXIS2_PLACEMENT_3D('',#1254,#1255,#1256);
#1258=PLANE('',#1257);
#1259=ORIENTED_EDGE('',*,*,#853,.F.);
#1261=ORIENTED_EDGE('',*,*,#1260,.T.);
#1263=ORIENTED_EDGE('',*,*,#1262,.T.);
#1265=ORIENTED_EDGE('',*,*,#1264,.F.);
#1266=EDGE_LOOP('',(#1259,#1261,#1263,#1265));
#1267=FACE_OUTER_BOUND('',#1266,.F.);
#1268=ADVANCED_FACE('',(#1267),#1258,.T.);
#1269=CARTESIAN_POINT('',(5.335E0,5.E-1,-1.95E0));
#1270=DIRECTION('',(0.E0,0.E0,1.E0));
#1271=DIRECTION('',(-1.E0,0.E0,0.E0));
#1272=AXIS2_PLACEMENT_3D('',#1269,#1270,#1271);
#1273=PLANE('',#1272);
#1274=ORIENTED_EDGE('',*,*,#859,.F.);
#1276=ORIENTED_EDGE('',*,*,#1275,.T.);
#1278=ORIENTED_EDGE('',*,*,#1277,.T.);
#1279=ORIENTED_EDGE('',*,*,#1260,.F.);
#1280=EDGE_LOOP('',(#1274,#1276,#1278,#1279));
#1281=FACE_OUTER_BOUND('',#1280,.F.);
#1282=ADVANCED_FACE('',(#1281),#1273,.T.);
#1283=CARTESIAN_POINT('',(5.335E0,5.E-1,-2.25E0));
#1284=DIRECTION('',(1.E0,0.E0,0.E0));
#1285=DIRECTION('',(0.E0,0.E0,1.E0));
#1286=AXIS2_PLACEMENT_3D('',#1283,#1284,#1285);
#1287=PLANE('',#1286);
#1288=ORIENTED_EDGE('',*,*,#857,.F.);
#1290=ORIENTED_EDGE('',*,*,#1289,.T.);
#1292=ORIENTED_EDGE('',*,*,#1291,.T.);
#1293=ORIENTED_EDGE('',*,*,#1275,.F.);
#1294=EDGE_LOOP('',(#1288,#1290,#1292,#1293));
#1295=FACE_OUTER_BOUND('',#1294,.F.);
#1296=ADVANCED_FACE('',(#1295),#1287,.T.);
#1297=CARTESIAN_POINT('',(4.835E0,5.E-1,-2.25E0));
#1298=DIRECTION('',(0.E0,0.E0,-1.E0));
#1299=DIRECTION('',(1.E0,0.E0,0.E0));
#1300=AXIS2_PLACEMENT_3D('',#1297,#1298,#1299);
#1301=PLANE('',#1300);
#1302=ORIENTED_EDGE('',*,*,#855,.F.);
#1303=ORIENTED_EDGE('',*,*,#1264,.T.);
#1305=ORIENTED_EDGE('',*,*,#1304,.T.);
#1306=ORIENTED_EDGE('',*,*,#1289,.F.);
#1307=EDGE_LOOP('',(#1302,#1303,#1305,#1306));
#1308=FACE_OUTER_BOUND('',#1307,.F.);
#1309=ADVANCED_FACE('',(#1308),#1301,.T.);
#1310=CARTESIAN_POINT('',(1.016E1,-4.1E0,0.E0));
#1311=DIRECTION('',(0.E0,-1.E0,0.E0));
#1312=DIRECTION('',(1.E0,0.E0,0.E0));
#1313=AXIS2_PLACEMENT_3D('',#1310,#1311,#1312);
#1314=PLANE('',#1313);
#1315=ORIENTED_EDGE('',*,*,#1262,.F.);
#1316=ORIENTED_EDGE('',*,*,#1277,.F.);
#1317=ORIENTED_EDGE('',*,*,#1291,.F.);
#1318=ORIENTED_EDGE('',*,*,#1304,.F.);
#1319=EDGE_LOOP('',(#1315,#1316,#1317,#1318));
#1320=FACE_OUTER_BOUND('',#1319,.F.);
#1321=ADVANCED_FACE('',(#1320),#1314,.T.);
#1322=CLOSED_SHELL('',(#681,#703,#725,#747,#769,#791,#863,#884,#913,#935,#946,
#958,#974,#996,#1010,#1024,#1037,#1049,#1064,#1078,#1092,#1105,#1117,#1132,
#1146,#1160,#1173,#1185,#1200,#1214,#1228,#1241,#1253,#1268,#1282,#1296,#1309,
#1321));
#1323=MANIFOLD_SOLID_BREP('',#1322);
#1325=DIMENSIONAL_EXPONENTS(0.E0,0.E0,0.E0,0.E0,0.E0,0.E0,0.E0);
#1327=PLANE_ANGLE_MEASURE_WITH_UNIT(PLANE_ANGLE_MEASURE(1.745329251994E-2),
#1326);
#1328=(CONVERSION_BASED_UNIT('DEGREE',#1327)NAMED_UNIT(*)PLANE_ANGLE_UNIT());
#1330=UNCERTAINTY_MEASURE_WITH_UNIT(LENGTH_MEASURE(2.528085178974E-3),#1324,
'closure',
'Maximum model space distance between geometric entities at asserted connectivities');
#1331=(GEOMETRIC_REPRESENTATION_CONTEXT(3)GLOBAL_UNCERTAINTY_ASSIGNED_CONTEXT((
#1330))GLOBAL_UNIT_ASSIGNED_CONTEXT((#1324,#1328,#1329))REPRESENTATION_CONTEXT(
'ID1','3'));
#1333=MECHANICAL_DESIGN_GEOMETRIC_PRESENTATION_REPRESENTATION('',(#688,#710,
#732,#754,#776,#798,#870,#891,#920,#981),#1331);
#1334=APPLICATION_CONTEXT(
'CONFIGURATION CONTROLLED 3D DESIGNS OF MECHANICAL PARTS AND ASSEMBLIES');
#1335=APPLICATION_PROTOCOL_DEFINITION('international standard',
'config_control_design',1994,#1334);
#1336=DESIGN_CONTEXT('',#1334,'design');
#1337=MECHANICAL_CONTEXT('',#1334,'mechanical');
#1338=PRODUCT('E_S-2WR3','E_S-2WR3','NOT SPECIFIED',(#1337));
#1339=PRODUCT_DEFINITION_FORMATION_WITH_SPECIFIED_SOURCE('1','LAST_VERSION',
#1338,.MADE.);
#1343=PRODUCT_CATEGORY('part','');
#1344=PRODUCT_RELATED_PRODUCT_CATEGORY('detail','',(#1338));
#1345=PRODUCT_CATEGORY_RELATIONSHIP('','',#1343,#1344);
#1346=SECURITY_CLASSIFICATION_LEVEL('unclassified');
#1347=SECURITY_CLASSIFICATION('','',#1346);
#1348=CC_DESIGN_SECURITY_CLASSIFICATION(#1347,(#1339));
#1349=APPROVAL_STATUS('approved');
#1350=APPROVAL(#1349,'');
#1351=CC_DESIGN_APPROVAL(#1350,(#1347,#1339,#1340));
#1352=CALENDAR_DATE(120,10,11);
#1353=COORDINATED_UNIVERSAL_TIME_OFFSET(8,0,.AHEAD.);
#1354=LOCAL_TIME(15,49,1.4E1,#1353);
#1355=DATE_AND_TIME(#1352,#1354);
#1356=APPROVAL_DATE_TIME(#1355,#1350);
#1357=DATE_TIME_ROLE('creation_date');
#1358=CC_DESIGN_DATE_AND_TIME_ASSIGNMENT(#1355,#1357,(#1340));
#1359=DATE_TIME_ROLE('classification_date');
#1360=CC_DESIGN_DATE_AND_TIME_ASSIGNMENT(#1355,#1359,(#1347));
#1361=PERSON('UNSPECIFIED','UNSPECIFIED',$,$,$,$);
#1362=ORGANIZATION('UNSPECIFIED','UNSPECIFIED','UNSPECIFIED');
#1363=PERSON_AND_ORGANIZATION(#1361,#1362);
#1364=APPROVAL_ROLE('approver');
#1365=APPROVAL_PERSON_ORGANIZATION(#1363,#1350,#1364);
#1366=PERSON_AND_ORGANIZATION_ROLE('creator');
#1367=CC_DESIGN_PERSON_AND_ORGANIZATION_ASSIGNMENT(#1363,#1366,(#1339,#1340));
#1368=PERSON_AND_ORGANIZATION_ROLE('design_supplier');
#1369=CC_DESIGN_PERSON_AND_ORGANIZATION_ASSIGNMENT(#1363,#1368,(#1339));
#1370=PERSON_AND_ORGANIZATION_ROLE('classification_officer');
#1371=CC_DESIGN_PERSON_AND_ORGANIZATION_ASSIGNMENT(#1363,#1370,(#1347));
#1372=PERSON_AND_ORGANIZATION_ROLE('design_owner');
#1373=CC_DESIGN_PERSON_AND_ORGANIZATION_ASSIGNMENT(#1363,#1372,(#1338));
#1=DRAUGHTING_PRE_DEFINED_COLOUR('black');
#2=COLOUR_RGB('',0.E0,0.E0,2.E-1);
#3=COLOUR_RGB('',0.E0,0.E0,4.705882352941E-1);
#4=COLOUR_RGB('',0.E0,0.E0,6.E-1);
#5=COLOUR_RGB('',0.E0,0.E0,8.E-1);
#6=COLOUR_RGB('',0.E0,2.745098039216E-2,7.019607843137E-1);
#7=COLOUR_RGB('',0.E0,2.E-1,1.E0);
#8=COLOUR_RGB('',0.E0,2.509803921569E-1,5.019607843137E-1);
#9=COLOUR_RGB('',0.E0,3.294117647059E-1,0.E0);
#10=COLOUR_RGB('',0.E0,3.294117647059E-1,3.294117647059E-1);
#11=COLOUR_RGB('',0.E0,4.E-1,1.E0);
#12=COLOUR_RGB('',0.E0,5.019607843137E-1,0.E0);
#13=COLOUR_RGB('',0.E0,5.294117647059E-1,5.294117647059E-1);
#14=COLOUR_RGB('',0.E0,6.588235294118E-1,1.E0);
#15=COLOUR_RGB('',0.E0,8.E-1,0.E0);
#16=COLOUR_RGB('',0.E0,8.E-1,8.E-1);
#17=DRAUGHTING_PRE_DEFINED_COLOUR('green');
#18=COLOUR_RGB('',0.E0,1.E0,2.E-1);
#19=COLOUR_RGB('',0.E0,1.E0,4.E-1);
#20=COLOUR_RGB('',0.E0,1.E0,6.E-1);
#21=COLOUR_RGB('',0.E0,1.E0,8.E-1);
#22=DRAUGHTING_PRE_DEFINED_COLOUR('cyan');
#23=COLOUR_RGB('',1.1E-2,1.2E-2,1.E0);
#24=COLOUR_RGB('',3.529411764706E-2,5.137254901961E-1,1.725490196078E-1);
#25=COLOUR_RGB('',6.666666666667E-2,8.E-1,1.E0);
#26=COLOUR_RGB('',9.019607843137E-2,2.235294117647E-1,4.196078431373E-1);
#27=COLOUR_RGB('',1.019607843137E-1,5.490196078431E-1,1.E0);
#28=COLOUR_RGB('',1.019607843137E-1,6.313725490196E-1,5.019607843137E-1);
#29=COLOUR_RGB('',1.098039215686E-1,1.098039215686E-1,1.098039215686E-1);
#30=COLOUR_RGB('',1.137254901961E-1,1.E0,9.254901960784E-1);
#31=COLOUR_RGB('',1.215686274510E-1,3.803921568627E-1,8.509803921569E-1);
#32=COLOUR_RGB('',1.215686274510E-1,8.117647058824E-1,4.705882352941E-2);
#33=COLOUR_RGB('',1.215686274510E-1,9.294117647059E-1,4.784313725490E-1);
#34=COLOUR_RGB('',1.254901960784E-1,3.725490196078E-1,1.E0);
#35=COLOUR_RGB('',1.372549019608E-1,8.313725490196E-1,6.509803921569E-1);
#36=COLOUR_RGB('',1.411764705882E-1,4.705882352941E-1,1.960784313725E-1);
#37=COLOUR_RGB('',1.490196078431E-1,8.705882352941E-1,1.E0);
#38=COLOUR_RGB('',1.568627450980E-1,3.137254901961E-1,1.764705882353E-1);
#39=COLOUR_RGB('',1.686274509804E-1,7.215686274510E-1,9.607843137255E-1);
#40=COLOUR_RGB('',1.803921568627E-1,1.803921568627E-1,1.803921568627E-1);
#41=COLOUR_RGB('',1.882352941176E-1,1.E0,2.745098039216E-2);
#42=COLOUR_RGB('',2.E-1,2.E-1,6.E-1);
#43=COLOUR_RGB('',2.E-1,1.E0,2.E-1);
#44=COLOUR_RGB('',2.E-1,1.E0,1.E0);
#45=COLOUR_RGB('',2.078431372549E-1,2.588235294118E-1,1.E0);
#46=COLOUR_RGB('',2.117647058824E-1,4.588235294118E-1,3.294117647059E-1);
#47=COLOUR_RGB('',2.117647058824E-1,5.137254901961E-1,4.156862745098E-1);
#48=COLOUR_RGB('',2.117647058824E-1,6.705882352941E-1,8.784313725490E-1);
#49=COLOUR_RGB('',2.117647058824E-1,7.607843137255E-1,7.411764705882E-1);
#50=COLOUR_RGB('',2.196078431373E-1,9.725490196078E-1,8.039215686275E-1);
#51=COLOUR_RGB('',2.313725490196E-1,2.509803921569E-1,2.509803921569E-1);
#52=COLOUR_RGB('',2.313725490196E-1,3.803921568627E-1,5.607843137255E-1);
#53=COLOUR_RGB('',2.313725490196E-1,8.235294117647E-1,9.411764705882E-1);
#54=COLOUR_RGB('',2.470588235294E-1,1.E0,6.588235294118E-1);
#55=COLOUR_RGB('',2.50980407E-1,2.50980407E-1,2.50980407E-1);
#56=COLOUR_RGB('',2.588235294118E-1,6.901960784314E-1,1.E0);
#57=COLOUR_RGB('',2.666666666667E-1,3.490196078431E-1,1.E0);
#58=COLOUR_RGB('',2.705882352941E-1,0.E0,4.E-1);
#59=COLOUR_RGB('',2.705882352941E-1,2.705882352941E-1,0.E0);
#60=COLOUR_RGB('',2.705882352941E-1,4.980392156863E-1,1.E0);
#61=COLOUR_RGB('',2.745098039216E-1,4.274509803922E-1,8.117647058824E-1);
#62=COLOUR_RGB('',3.137254901961E-1,1.E0,2.666666666667E-1);
#63=COLOUR_RGB('',3.254901960784E-1,5.764705882353E-1,8.117647058824E-1);
#64=COLOUR_RGB('',3.294117647059E-1,0.E0,5.294117647059E-1);
#65=COLOUR_RGB('',3.529411764706E-1,3.529411764706E-1,0.E0);
#66=COLOUR_RGB('',3.529411764706E-1,3.529411764706E-1,3.529411764706E-1);
#67=COLOUR_RGB('',3.529411764706E-1,6.666666666667E-1,2.352941176471E-1);
#68=COLOUR_RGB('',3.568627450980E-1,3.450980392157E-1,9.294117647059E-1);
#69=COLOUR_RGB('',3.686274509804E-1,7.803921568627E-1,8.E-1);
#70=COLOUR_RGB('',3.843137254902E-1,6.196078431373E-1,6.039215686275E-1);
#71=COLOUR_RGB('',3.92E-1,1.2E-2,1.2E-2);
#72=COLOUR_RGB('',4.E-1,0.E0,4.E-1);
#73=COLOUR_RGB('',4.E-1,0.E0,6.705882352941E-1);
#74=COLOUR_RGB('',4.E-1,1.294117647059E-1,0.E0);
#75=COLOUR_RGB('',4.E-1,4.509803921569E-1,1.E0);
#76=COLOUR_RGB('',4.E-1,9.803921568627E-1,1.E0);
#77=COLOUR_RGB('',4.E-1,1.E0,0.E0);
#78=COLOUR_RGB('',4.E-1,1.E0,4.E-1);
#79=COLOUR_RGB('',4.1E-1,0.E0,2.2E-1);
#80=COLOUR_RGB('',4.313725490196E-1,4.313725490196E-1,4.313725490196E-1);
#81=COLOUR_RGB('',4.392156862745E-1,5.019607843137E-1,6.E-1);
#82=COLOUR_RGB('',4.431372549020E-1,6.352941176471E-1,1.E0);
#83=COLOUR_RGB('',4.470588235294E-1,2.352941176471E-1,2.196078431373E-1);
#84=COLOUR_RGB('',4.705882352941E-1,0.E0,8.E-1);
#85=COLOUR_RGB('',4.705882352941E-1,2.E-1,7.058823529412E-2);
#86=COLOUR_RGB('',4.823529411765E-1,8.078431372549E-1,1.E0);
#87=COLOUR_RGB('',4.941176470588E-1,1.E0,8.862745098039E-1);
#88=COLOUR_RGB('',5.019607843137E-1,0.E0,5.019607843137E-1);
#89=COLOUR_RGB('',5.019607843137E-1,1.176470588235E-1,1.E0);
#90=COLOUR_RGB('',5.019607843137E-1,5.019607843137E-1,0.E0);
#91=COLOUR_RGB('',5.019607843137E-1,5.019607843137E-1,5.019607843137E-1);
#92=COLOUR_RGB('',5.019607843137E-1,1.E0,5.019607843137E-1);
#93=COLOUR_RGB('',5.098039215686E-1,3.960784313725E-1,1.058823529412E-1);
#94=COLOUR_RGB('',5.137254901961E-1,0.E0,0.E0);
#95=COLOUR_RGB('',5.294117647059E-1,0.E0,9.294117647059E-1);
#96=COLOUR_RGB('',5.294117647059E-1,2.705882352941E-1,1.294117647059E-1);
#97=COLOUR_RGB('',5.294117647059E-1,5.294117647059E-1,1.E0);
#98=COLOUR_RGB('',5.686274509804E-1,9.019607843137E-1,8.588235294118E-1);
#99=COLOUR_RGB('',5.764705882353E-1,6.470588235294E-1,1.E0);
#100=COLOUR_RGB('',5.921568627451E-1,2.156862745098E-1,8.313725490196E-1);
#101=COLOUR_RGB('',6.E-1,0.E0,6.E-1);
#102=COLOUR_RGB('',6.E-1,2.E-1,1.E0);
#103=COLOUR_RGB('',6.E-1,1.E0,1.E0);
#104=COLOUR_RGB('',6.117647058824E-1,0.E0,5.882352941176E-2);
#105=COLOUR_RGB('',6.117647058824E-1,5.647058823529E-1,3.647058823529E-1);
#106=COLOUR_RGB('',6.392156862745E-1,4.E-1,2.078431372549E-1);
#107=COLOUR_RGB('',6.392156862745E-1,4.627450980392E-1,3.019607843137E-1);
#108=COLOUR_RGB('',6.392156862745E-1,7.019607843137E-1,1.607843137255E-1);
#109=COLOUR_RGB('',6.431372549020E-1,3.803921568627E-1,1.E0);
#110=COLOUR_RGB('',6.470588235294E-1,5.176470588235E-1,0.E0);
#111=COLOUR_RGB('',6.470588235294E-1,6.196078431373E-1,5.882352941176E-1);
#112=COLOUR_RGB('',6.509803921569E-1,1.E0,8.705882352941E-1);
#113=COLOUR_RGB('',6.627450980392E-1,9.411764705882E-1,5.843137254902E-1);
#114=COLOUR_RGB('',6.705882352941E-1,1.E0,0.E0);
#115=COLOUR_RGB('',6.784313725490E-1,8.117647058824E-1,1.E0);
#116=COLOUR_RGB('',6.862745098039E-1,6.627450980392E-1,1.E0);
#117=COLOUR_RGB('',6.952E-1,7.426E-1,7.9E-1);
#118=COLOUR_RGB('',6.980392156863E-1,4.392156862745E-1,3.803921568627E-1);
#119=COLOUR_RGB('',7.019607843137E-1,7.019607843137E-1,5.607843137255E-1);
#120=COLOUR_RGB('',7.058823529412E-1,9.333333333333E-1,1.E0);
#121=COLOUR_RGB('',7.254901960784E-1,1.E0,7.607843137255E-1);
#122=COLOUR_RGB('',7.294117647059E-1,4.E-1,0.E0);
#123=COLOUR_RGB('',7.333333333333E-1,3.529411764706E-1,8.313725490196E-1);
#124=COLOUR_RGB('',7.411764705882E-1,3.490196078431E-1,1.E0);
#125=COLOUR_RGB('',7.490196078431E-1,7.215686274510E-1,0.E0);
#126=COLOUR_RGB('',7.568627450980E-1,7.882352941176E-1,1.098039215686E-1);
#127=COLOUR_RGB('',7.607843137255E-1,5.176470588235E-1,6.274509803922E-1);
#128=COLOUR_RGB('',7.686274509804E-1,5.647058823529E-1,2.156862745098E-1);
#129=COLOUR_RGB('',7.803921568627E-1,1.E0,7.843137254902E-3);
#130=COLOUR_RGB('',7.84314E-1,7.84314E-1,7.84314E-1);
#131=COLOUR_RGB('',7.882352941176E-1,5.372549019608E-1,1.E0);
#132=COLOUR_RGB('',7.882352941176E-1,7.686274509804E-1,3.921568627451E-1);
#133=COLOUR_RGB('',7.882352941176E-1,9.411764705882E-1,3.019607843137E-1);
#134=COLOUR_RGB('',7.960784313725E-1,8.235294117647E-1,9.372549019608E-1);
#135=COLOUR_RGB('',8.E-1,0.E0,8.E-1);
#136=COLOUR_RGB('',8.E-1,5.294117647059E-1,8.588235294118E-1);
#137=COLOUR_RGB('',8.E-1,8.E-1,2.E-1);
#138=COLOUR_RGB('',8.235294117647E-1,1.E0,1.137254901961E-1);
#139=COLOUR_RGB('',8.313725490196E-1,3.137254901961E-2,3.137254901961E-2);
#140=COLOUR_RGB('',8.392156862745E-1,1.960784313725E-1,8.313725490196E-1);
#141=COLOUR_RGB('',8.392156862745E-1,4.470588235294E-1,3.882352941176E-1);
#142=COLOUR_RGB('',8.470588235294E-1,8.470588235294E-1,8.470588235294E-1);
#143=COLOUR_RGB('',8.705882352941E-1,6.E-1,4.705882352941E-1);
#144=COLOUR_RGB('',8.745098039216E-1,1.254901960784E-1,1.254901960784E-1);
#145=COLOUR_RGB('',8.784E-1,9.49E-1,1.E0);
#146=COLOUR_RGB('',8.980392156863E-1,6.274509803922E-1,1.E0);
#147=COLOUR_RGB('',9.019607843137E-1,3.137254901961E-1,7.882352941176E-1);
#148=COLOUR_RGB('',9.098039215686E-1,4.431372549020E-1,3.137254901961E-2);
#149=COLOUR_RGB('',9.294117647059E-1,6.705882352941E-1,5.294117647059E-1);
#150=COLOUR_RGB('',9.294117647059E-1,8.E-1,1.E0);
#151=COLOUR_RGB('',9.490196078431E-1,7.568627450980E-1,1.764705882353E-1);
#152=COLOUR_RGB('',9.490196078431E-1,9.411764705882E-1,7.882352941176E-1);
#153=COLOUR_RGB('',9.6E-1,9.6E-1,9.6E-1);
#154=COLOUR_RGB('',9.8E-1,6.27E-1,0.E0);
#155=COLOUR_RGB('',9.882352941176E-1,5.098039215686E-1,1.E0);
#156=COLOUR_RGB('',9.882352941176E-1,7.686274509804E-1,8.E-1);
#157=DRAUGHTING_PRE_DEFINED_COLOUR('red');
#158=COLOUR_RGB('',1.E0,0.E0,2.705882352941E-1);
#159=COLOUR_RGB('',1.E0,0.E0,4.705882352941E-1);
#160=COLOUR_RGB('',1.E0,0.E0,7.803921568627E-1);
#161=COLOUR_RGB('',1.E0,3.529411764706E-2,1.098039215686E-1);
#162=COLOUR_RGB('',1.E0,5.490196078431E-2,9.568627450980E-1);
#163=COLOUR_RGB('',1.E0,1.921568627451E-1,2.745098039216E-1);
#164=COLOUR_RGB('',1.E0,2.E-1,1.E0);
#165=COLOUR_RGB('',1.E0,2.705882352941E-1,0.E0);
#166=COLOUR_RGB('',1.E0,2.862745098039E-1,9.490196078431E-1);
#167=COLOUR_RGB('',1.E0,3.137254901961E-1,3.215686274510E-1);
#168=COLOUR_RGB('',1.E0,4.E-1,1.E0);
#169=COLOUR_RGB('',1.E0,4.588235294118E-1,1.411764705882E-1);
#170=COLOUR_RGB('',1.E0,4.705882352941E-1,4.705882352941E-1);
#171=COLOUR_RGB('',1.E0,5.019607843137E-1,0.E0);
#172=COLOUR_RGB('',1.E0,5.450980392157E-1,7.372549019608E-1);
#173=COLOUR_RGB('',1.E0,6.862745098039E-1,6.078431372549E-1);
#174=COLOUR_RGB('',1.E0,7.450980392157E-1,2.745098039216E-2);
#175=COLOUR_RGB('',1.E0,8.078431372549E-1,4.588235294118E-1);
#176=COLOUR_RGB('',1.E0,8.705882352941E-1,2.745098039216E-2);
#177=COLOUR_RGB('',1.E0,9.882352941176E-1,2.352941176471E-1);
#178=DRAUGHTING_PRE_DEFINED_COLOUR('yellow');
#179=COLOUR_RGB('',1.E0,1.E0,5.294117647059E-1);
#180=COLOUR_RGB('',1.E0,1.E0,9.49E-1);
#181=DRAUGHTING_PRE_DEFINED_COLOUR('white');
#330=CIRCLE('',#329,4.5E-1);
#335=CIRCLE('',#334,4.5E-1);
#348=CIRCLE('',#347,4.5E-1);
#353=CIRCLE('',#352,4.5E-1);
#671=EDGE_CURVE('',#548,#549,#193,.T.);
#673=EDGE_CURVE('',#551,#548,#325,.T.);
#675=EDGE_CURVE('',#551,#553,#185,.T.);
#677=EDGE_CURVE('',#549,#553,#369,.T.);
#694=EDGE_CURVE('',#556,#557,#189,.T.);
#696=EDGE_CURVE('',#548,#557,#297,.T.);
#699=EDGE_CURVE('',#556,#549,#365,.T.);
#716=EDGE_CURVE('',#560,#561,#201,.T.);
#718=EDGE_CURVE('',#557,#560,#301,.T.);
#721=EDGE_CURVE('',#556,#561,#197,.T.);
#738=EDGE_CURVE('',#564,#565,#209,.T.);
#740=EDGE_CURVE('',#560,#564,#305,.T.);
#743=EDGE_CURVE('',#561,#565,#205,.T.);
#760=EDGE_CURVE('',#568,#569,#213,.T.);
#762=EDGE_CURVE('',#564,#568,#309,.T.);
#765=EDGE_CURVE('',#569,#565,#361,.T.);
#782=EDGE_CURVE('',#572,#573,#217,.T.);
#784=EDGE_CURVE('',#568,#572,#313,.T.);
#787=EDGE_CURVE('',#573,#569,#357,.T.);
#804=EDGE_CURVE('',#576,#577,#289,.T.);
#806=EDGE_CURVE('',#572,#576,#317,.T.);
#809=EDGE_CURVE('',#573,#577,#221,.T.);
#813=EDGE_CURVE('',#580,#581,#373,.T.);
#815=EDGE_CURVE('',#583,#580,#397,.T.);
#817=EDGE_CURVE('',#585,#583,#389,.T.);
#819=EDGE_CURVE('',#581,#585,#381,.T.);
#823=EDGE_CURVE('',#612,#613,#225,.T.);
#825=EDGE_CURVE('',#613,#615,#229,.T.);
#827=EDGE_CURVE('',#615,#617,#233,.T.);
#829=EDGE_CURVE('',#617,#612,#237,.T.);
#833=EDGE_CURVE('',#628,#629,#241,.T.);
#835=EDGE_CURVE('',#629,#631,#245,.T.);
#837=EDGE_CURVE('',#631,#633,#249,.T.);
#839=EDGE_CURVE('',#633,#628,#253,.T.);
#843=EDGE_CURVE('',#644,#645,#257,.T.);
#845=EDGE_CURVE('',#645,#647,#261,.T.);
#847=EDGE_CURVE('',#647,#649,#265,.T.);
#849=EDGE_CURVE('',#649,#644,#269,.T.);
#853=EDGE_CURVE('',#660,#661,#273,.T.);
#855=EDGE_CURVE('',#661,#663,#277,.T.);
#857=EDGE_CURVE('',#663,#665,#281,.T.);
#859=EDGE_CURVE('',#665,#660,#285,.T.);
#877=EDGE_CURVE('',#576,#551,#321,.T.);
#880=EDGE_CURVE('',#577,#553,#293,.T.);
#907=EDGE_CURVE('',#596,#597,#330,.T.);
#909=EDGE_CURVE('',#597,#596,#335,.T.);
#926=EDGE_CURVE('',#600,#601,#353,.T.);
#928=EDGE_CURVE('',#600,#597,#339,.T.);
#931=EDGE_CURVE('',#596,#601,#343,.T.);
#941=EDGE_CURVE('',#601,#600,#348,.T.);
#988=EDGE_CURVE('',#587,#581,#385,.T.);
#990=EDGE_CURVE('',#589,#587,#405,.T.);
#992=EDGE_CURVE('',#589,#580,#377,.T.);
#1003=EDGE_CURVE('',#591,#585,#393,.T.);
#1005=EDGE_CURVE('',#587,#591,#409,.T.);
#1017=EDGE_CURVE('',#593,#583,#401,.T.);
#1019=EDGE_CURVE('',#591,#593,#413,.T.);
#1032=EDGE_CURVE('',#593,#589,#417,.T.);
#1056=EDGE_CURVE('',#612,#604,#421,.T.);
#1058=EDGE_CURVE('',#604,#605,#437,.T.);
#1060=EDGE_CURVE('',#613,#605,#433,.T.);
#1071=EDGE_CURVE('',#617,#609,#425,.T.);
#1073=EDGE_CURVE('',#609,#604,#441,.T.);
#1085=EDGE_CURVE('',#615,#607,#429,.T.);
#1087=EDGE_CURVE('',#607,#609,#445,.T.);
#1100=EDGE_CURVE('',#605,#607,#449,.T.);
#1124=EDGE_CURVE('',#628,#620,#453,.T.);
#1126=EDGE_CURVE('',#620,#621,#469,.T.);
#1128=EDGE_CURVE('',#629,#621,#465,.T.);
#1139=EDGE_CURVE('',#633,#625,#457,.T.);
#1141=EDGE_CURVE('',#625,#620,#473,.T.);
#1153=EDGE_CURVE('',#631,#623,#461,.T.);
#1155=EDGE_CURVE('',#623,#625,#477,.T.);
#1168=EDGE_CURVE('',#621,#623,#481,.T.);
#1192=EDGE_CURVE('',#644,#636,#485,.T.);
#1194=EDGE_CURVE('',#636,#637,#501,.T.);
#1196=EDGE_CURVE('',#645,#637,#497,.T.);
#1207=EDGE_CURVE('',#649,#641,#489,.T.);
#1209=EDGE_CURVE('',#641,#636,#505,.T.);
#1221=EDGE_CURVE('',#647,#639,#493,.T.);
#1223=EDGE_CURVE('',#639,#641,#509,.T.);
#1236=EDGE_CURVE('',#637,#639,#513,.T.);
#1260=EDGE_CURVE('',#660,#652,#517,.T.);
#1262=EDGE_CURVE('',#652,#653,#533,.T.);
#1264=EDGE_CURVE('',#661,#653,#529,.T.);
#1275=EDGE_CURVE('',#665,#657,#521,.T.);
#1277=EDGE_CURVE('',#657,#652,#537,.T.);
#1289=EDGE_CURVE('',#663,#655,#525,.T.);
#1291=EDGE_CURVE('',#655,#657,#541,.T.);
#1304=EDGE_CURVE('',#653,#655,#545,.T.);
#1324=(LENGTH_UNIT()NAMED_UNIT(*)SI_UNIT(.MILLI.,.METRE.));
#1326=(NAMED_UNIT(*)PLANE_ANGLE_UNIT()SI_UNIT($,.RADIAN.));
#1329=(NAMED_UNIT(*)SI_UNIT($,.STERADIAN.)SOLID_ANGLE_UNIT());
#1332=ADVANCED_BREP_SHAPE_REPRESENTATION('',(#1323),#1331);
#1340=PRODUCT_DEFINITION('design','',#1339,#1336);
#1341=PRODUCT_DEFINITION_SHAPE('','SHAPE FOR E_S-2WR3.',#1340);
#1342=SHAPE_DEFINITION_REPRESENTATION(#1341,#1332);
ENDSEC;
END-ISO-10303-21;
