M48
; DRILL file KiCad 10.0.1 date 2026-06-03T15:40:55
; FORMAT={-:-/ absolute / metric / decimal}
; #@! TF.CreationDate,2026-06-03T15:40:55+03:00
; #@! TF.GenerationSoftware,Kicad,Pcbnew,10.0.1
; #@! TF.FileFunction,NonPlated,1,4,NPTH
FMAT,2
METRIC
; #@! TA.AperFunction,NonPlated,NPTH,ComponentDrill
T1C3.000
; #@! TA.AperFunction,NonPlated,NPTH,ComponentDrill
T2C4.300
%
G90
G05
T1
X226.975Y-138.0
X226.975Y-155.0
X226.975Y-178.0
X226.975Y-195.0
X226.975Y-213.25
X245.75Y-301.3
X270.75Y-301.3
X295.75Y-301.3
X301.85Y-94.0
X310.25Y-94.0
X320.75Y-301.3
X376.525Y-103.25
X376.525Y-126.25
X376.525Y-149.25
X376.525Y-172.25
X376.525Y-195.25
X376.525Y-218.25
X376.525Y-241.25
X376.525Y-264.25
T2
X225.75Y-302.5
X377.75Y-92.5
X377.75Y-302.5
M30
