M48
; DRILL file KiCad 10.0.1 date 2026-07-08T12:20:55
; FORMAT={-:-/ absolute / metric / decimal}
; #@! TF.CreationDate,2026-07-08T12:20:55+03:00
; #@! TF.GenerationSoftware,Kicad,Pcbnew,10.0.1
; #@! TF.FileFunction,Plated,1,4,PTH
FMAT,2
METRIC
; #@! TA.AperFunction,Plated,PTH,ViaDrill
T1C0.300
; #@! TA.AperFunction,Plated,PTH,ComponentDrill
T2C0.600
; #@! TA.AperFunction,Plated,PTH,ComponentDrill
T3C1.000
; #@! TA.AperFunction,Plated,PTH,ComponentDrill
T4C1.300
; #@! TA.AperFunction,Plated,PTH,ComponentDrill
T5C1.800
; #@! TA.AperFunction,Plated,PTH,ComponentDrill
T6C4.300
%
G90
G05
T1
X222.25Y-219.0
X222.25Y-220.0
X222.25Y-221.0
X222.25Y-222.0
X222.25Y-223.0
X222.25Y-224.0
X223.0Y-219.5
X223.0Y-220.5
X223.0Y-221.5
X223.0Y-222.5
X223.0Y-223.5
X223.0Y-224.5
X223.75Y-219.0
X223.75Y-220.0
X223.75Y-221.0
X223.75Y-222.0
X223.75Y-223.0
X223.75Y-224.0
X224.5Y-219.5
X224.5Y-220.5
X224.5Y-221.5
X224.5Y-222.5
X224.5Y-223.5
X224.5Y-224.5
X225.25Y-219.0
X225.25Y-220.0
X225.25Y-221.0
X225.25Y-222.0
X225.25Y-223.0
X225.25Y-224.0
X226.0Y-219.5
X226.0Y-220.5
X226.0Y-221.5
X226.0Y-222.5
X226.0Y-223.5
X226.0Y-224.5
X231.5Y-236.75
X233.0Y-236.75
X234.5Y-236.75
X235.5Y-218.25
X236.0Y-242.25
X236.0Y-243.25
X236.0Y-244.25
X236.0Y-264.75
X236.25Y-217.75
X236.75Y-238.0
X236.75Y-238.75
X236.75Y-239.5
X236.75Y-240.25
X237.0Y-217.25
X237.0Y-218.25
X237.5Y-238.0
X237.75Y-217.75
X238.25Y-238.0
X238.5Y-217.25
X238.5Y-218.25
X239.0Y-300.25
X239.0Y-301.5
X239.0Y-302.75
X239.25Y-217.75
X240.0Y-218.25
X240.75Y-217.75
X241.5Y-217.25
X241.5Y-218.25
X242.0Y-284.25
X242.25Y-214.75
X242.25Y-215.75
X242.25Y-216.75
X242.25Y-217.75
X242.25Y-218.75
X242.25Y-219.75
X242.25Y-220.75
X242.25Y-221.75
X242.25Y-222.75
X242.25Y-223.75
X242.8Y-264.05
X242.8Y-265.95
X243.0Y-214.25
X243.0Y-215.25
X243.0Y-216.25
X243.0Y-217.25
X243.0Y-218.25
X243.0Y-219.25
X243.0Y-220.25
X243.0Y-221.25
X243.0Y-222.25
X243.0Y-223.25
X243.5Y-138.0
X243.5Y-178.0
X243.5Y-269.25
X243.75Y-214.75
X243.75Y-220.75
X243.75Y-221.75
X243.75Y-222.75
X244.5Y-214.25
X244.5Y-221.25
X244.5Y-222.25
X245.25Y-214.75
X245.25Y-220.75
X245.75Y-269.25
X246.0Y-214.25
X246.75Y-214.75
X251.25Y-136.25
X251.25Y-139.75
X251.25Y-176.25
X251.25Y-179.75
X254.5Y-227.75
X261.0Y-264.75
X262.75Y-225.25
X262.75Y-226.25
X262.75Y-227.25
X262.75Y-228.25
X263.0Y-241.75
X263.25Y-225.75
X263.25Y-226.75
X263.25Y-227.75
X263.75Y-225.25
X263.75Y-226.25
X263.75Y-227.25
X263.75Y-228.25
X264.0Y-300.25
X264.0Y-301.5
X264.0Y-302.75
X264.2Y-238.767
X264.25Y-225.75
X264.25Y-226.75
X264.25Y-227.75
X264.75Y-225.25
X264.75Y-226.25
X264.75Y-227.25
X267.0Y-284.25
X267.8Y-264.05
X267.8Y-265.95
X268.0Y-93.75
X268.0Y-94.5
X268.0Y-95.25
X268.0Y-96.0
X268.0Y-96.75
X268.5Y-269.25
X268.75Y-88.5
X268.75Y-89.25
X268.75Y-90.0
X268.75Y-90.75
X268.75Y-91.5
X270.75Y-269.25
X271.25Y-228.75
X271.75Y-225.25
X271.75Y-226.25
X271.75Y-227.25
X271.75Y-228.25
X272.0Y-237.5
X272.0Y-241.75
X272.25Y-225.75
X272.25Y-226.75
X272.25Y-227.75
X272.25Y-228.75
X272.75Y-225.25
X272.75Y-226.25
X272.75Y-227.25
X272.75Y-228.25
X273.2Y-238.767
X273.25Y-225.75
X273.25Y-226.75
X273.25Y-227.75
X273.25Y-228.75
X274.5Y-173.25
X274.5Y-174.0
X274.5Y-174.75
X274.5Y-176.0
X274.5Y-176.75
X274.5Y-177.5
X280.0Y-211.5
X282.5Y-133.25
X282.5Y-134.0
X282.5Y-134.75
X282.5Y-136.0
X282.5Y-136.75
X282.5Y-137.5
X286.0Y-264.75
X286.25Y-221.5
X289.0Y-300.25
X289.0Y-301.5
X289.0Y-302.75
X290.25Y-221.5
X292.0Y-284.25
X292.8Y-264.05
X292.8Y-265.95
X293.25Y-221.75
X293.5Y-269.25
X293.75Y-193.75
X294.0Y-221.15
X295.75Y-269.25
X297.5Y-210.25
X298.75Y-210.5
X300.25Y-216.25
X300.25Y-217.25
X300.25Y-218.25
X300.25Y-219.25
X300.75Y-216.75
X300.75Y-217.75
X300.75Y-218.75
X301.25Y-216.25
X301.25Y-217.25
X301.25Y-218.25
X301.25Y-219.25
X301.75Y-216.75
X301.75Y-217.75
X301.75Y-218.75
X302.25Y-216.25
X302.25Y-217.25
X302.25Y-218.25
X302.25Y-219.25
X302.75Y-216.75
X302.75Y-217.75
X302.75Y-218.75
X303.25Y-216.25
X303.25Y-217.25
X303.25Y-218.25
X303.25Y-219.25
X303.5Y-225.25
X303.845Y-121.655
X303.845Y-130.0
X304.5Y-193.75
X304.919Y-210.209
X305.115Y-133.0
X305.5Y-225.0
X305.75Y-231.75
X306.385Y-121.635
X306.385Y-130.115
X306.731Y-203.231
X306.75Y-204.5
X306.75Y-207.0
X307.0Y-234.75
X308.5Y-133.0
X308.75Y-215.5
X308.75Y-222.0
X308.925Y-121.575
X308.925Y-130.075
X310.0Y-219.0
X310.0Y-234.75
X310.195Y-130.25
X310.75Y-202.0
X310.75Y-204.5
X310.75Y-207.0
X311.0Y-264.75
X311.25Y-231.75
X313.25Y-131.5
X313.25Y-133.75
X313.25Y-136.0
X314.0Y-300.25
X314.0Y-301.5
X314.0Y-302.75
X314.5Y-226.5
X314.537Y-222.287
X316.0Y-227.5
X317.0Y-284.25
X317.8Y-264.05
X317.8Y-265.95
X318.5Y-269.25
X319.5Y-220.5
X320.75Y-269.25
X338.25Y-113.0
X338.25Y-136.0
X338.25Y-159.0
X338.25Y-182.0
X338.25Y-205.0
X338.25Y-228.0
X338.25Y-251.0
X338.25Y-274.0
X340.287Y-113.212
X340.287Y-136.213
X340.287Y-159.213
X340.287Y-182.213
X340.287Y-205.212
X340.287Y-228.212
X340.287Y-251.212
X340.287Y-274.212
X341.0Y-116.25
X341.0Y-139.25
X341.0Y-162.25
X341.0Y-185.25
X341.0Y-208.25
X341.0Y-231.25
X341.0Y-254.25
X341.0Y-277.25
X341.15Y-114.35
X341.15Y-137.35
X341.15Y-160.35
X341.15Y-183.35
X341.15Y-206.35
X341.15Y-229.35
X341.15Y-252.35
X341.15Y-275.35
X342.3Y-109.55
X342.3Y-132.55
X342.3Y-155.55
X342.3Y-178.55
X342.3Y-201.55
X342.3Y-224.55
X342.3Y-247.55
X342.3Y-270.55
X343.25Y-113.75
X343.25Y-136.75
X343.25Y-159.75
X343.25Y-182.75
X343.25Y-205.75
X343.25Y-228.75
X343.25Y-251.75
X343.25Y-274.75
X346.25Y-109.0
X346.25Y-114.25
X346.25Y-132.0
X346.25Y-137.25
X346.25Y-155.0
X346.25Y-160.25
X346.25Y-178.0
X346.25Y-183.25
X346.25Y-201.0
X346.25Y-206.25
X346.25Y-224.0
X346.25Y-229.25
X346.25Y-247.0
X346.25Y-252.25
X346.25Y-270.0
X346.25Y-275.25
X347.875Y-106.625
X347.875Y-129.625
X347.875Y-152.625
X347.875Y-175.625
X347.875Y-198.625
X347.875Y-221.625
X347.875Y-244.625
X347.875Y-267.625
X348.5Y-290.25
X348.5Y-291.0
X348.5Y-291.75
X348.5Y-292.5
X349.0Y-115.25
X349.0Y-138.25
X349.0Y-161.25
X349.0Y-184.25
X349.0Y-207.25
X349.0Y-230.25
X349.0Y-253.25
X349.0Y-276.25
X349.25Y-290.25
X349.25Y-291.0
X350.925Y-109.325
X350.925Y-114.175
X350.925Y-132.325
X350.925Y-137.175
X350.925Y-155.325
X350.925Y-160.175
X350.925Y-178.325
X350.925Y-183.175
X350.925Y-201.325
X350.925Y-206.175
X350.925Y-224.325
X350.925Y-229.175
X350.925Y-247.325
X350.925Y-252.175
X350.925Y-270.325
X350.925Y-275.175
X352.5Y-303.25
X352.5Y-304.0
X352.5Y-304.75
X361.575Y-109.075
X361.575Y-114.325
X361.575Y-132.075
X361.575Y-137.325
X361.575Y-155.075
X361.575Y-160.325
X361.575Y-178.075
X361.575Y-183.325
X361.575Y-201.075
X361.575Y-206.325
X361.575Y-224.075
X361.575Y-229.325
X361.575Y-247.075
X361.575Y-252.325
X361.575Y-270.075
X361.575Y-275.325
X363.0Y-153.75
X363.0Y-176.75
X363.0Y-199.75
X363.0Y-222.75
X363.0Y-245.75
X363.0Y-268.75
X363.5Y-289.75
X363.5Y-290.75
X364.0Y-290.25
X364.0Y-291.25
X364.5Y-289.75
X364.5Y-290.75
X365.0Y-290.25
X365.0Y-291.25
X365.5Y-289.75
X365.5Y-290.75
X366.0Y-290.25
X366.0Y-291.25
X366.5Y-289.75
X366.5Y-290.75
X366.5Y-294.75
X367.0Y-290.25
X367.0Y-291.25
X367.5Y-289.75
X367.5Y-290.75
X369.5Y-288.0
X369.5Y-289.0
X369.5Y-296.0
X370.0Y-288.5
X370.0Y-289.5
X370.5Y-288.0
X370.5Y-289.0
X370.75Y-294.75
X371.0Y-288.5
X371.0Y-289.5
X371.25Y-280.75
X371.5Y-288.0
X371.5Y-289.0
X372.0Y-109.25
X372.0Y-132.25
X372.0Y-288.5
X372.0Y-289.5
X372.25Y-280.75
X372.5Y-288.0
X372.5Y-289.0
X373.0Y-288.5
X373.0Y-289.5
X373.5Y-288.0
X373.5Y-289.0
X374.0Y-288.5
X374.0Y-289.5
X374.25Y-280.75
X374.5Y-288.0
X374.5Y-289.0
X375.25Y-280.75
T2
X222.525Y-92.5
X223.47Y-90.22
X223.47Y-94.78
X225.75Y-89.275
X225.75Y-95.725
X228.03Y-90.22
X228.03Y-94.78
X228.975Y-92.5
T3
X241.138Y-237.353
X243.678Y-237.353
X245.118Y-225.75
X246.218Y-237.353
X250.118Y-225.75
X251.298Y-237.353
X253.838Y-237.353
X254.25Y-133.485
X254.25Y-136.025
X254.25Y-139.985
X254.25Y-142.525
X254.25Y-173.475
X254.25Y-176.015
X254.25Y-179.975
X254.25Y-182.515
X256.378Y-237.353
X256.5Y-255.5
X258.918Y-237.353
X259.991Y-134.17
X259.991Y-136.71
X259.991Y-139.25
X260.193Y-174.19
X260.193Y-176.73
X260.193Y-179.27
X261.5Y-255.5
X262.795Y-100.249
X265.335Y-100.249
X267.813Y-174.19
X267.813Y-176.73
X267.813Y-179.27
X267.813Y-181.81
X275.231Y-134.17
X275.231Y-136.71
X275.231Y-139.25
X275.231Y-141.79
X280.0Y-217.69
X280.0Y-220.23
X280.0Y-222.77
X280.0Y-225.31
X281.5Y-255.5
X281.545Y-180.795
X281.545Y-183.335
X281.545Y-185.875
X281.545Y-188.415
X281.545Y-190.955
X281.545Y-193.495
X281.545Y-196.035
X281.545Y-198.575
X284.085Y-180.795
X284.085Y-183.335
X284.085Y-185.875
X284.085Y-188.415
X284.085Y-190.955
X284.085Y-193.495
X284.085Y-196.035
X284.085Y-198.575
X286.5Y-255.5
X295.75Y-255.5
X298.5Y-193.485
X298.5Y-196.025
X300.75Y-255.5
X309.25Y-193.46
X309.25Y-196.0
X318.25Y-255.5
X323.25Y-255.5
X338.25Y-105.5
X338.25Y-109.25
X338.25Y-128.5
X338.25Y-132.25
X338.25Y-151.5
X338.25Y-155.25
X338.25Y-174.5
X338.25Y-178.25
X338.25Y-197.5
X338.25Y-201.25
X338.25Y-220.5
X338.25Y-224.25
X338.25Y-243.5
X338.25Y-247.25
X338.25Y-266.5
X338.25Y-270.25
X352.678Y-289.394
X355.217Y-289.394
X357.757Y-289.394
X360.297Y-289.394
X370.75Y-116.75
X370.75Y-139.75
X375.0Y-153.75
X375.0Y-157.5
X375.0Y-176.75
X375.0Y-180.5
X375.0Y-199.75
X375.0Y-203.5
X375.0Y-222.75
X375.0Y-226.5
X375.0Y-245.75
X375.0Y-249.5
X375.0Y-268.75
X375.0Y-272.5
X375.5Y-116.75
X375.5Y-139.75
T4
X236.657Y-270.6
X236.657Y-274.35
X236.657Y-290.6
X236.657Y-295.6
X261.657Y-270.6
X261.657Y-274.35
X261.657Y-290.6
X261.657Y-295.6
X286.657Y-270.6
X286.657Y-274.35
X286.657Y-290.6
X286.657Y-295.6
X311.657Y-270.6
X311.657Y-274.35
X311.657Y-290.6
X311.657Y-295.6
T5
X234.275Y-135.9
X234.275Y-140.1
X234.275Y-152.9
X234.275Y-157.1
X234.275Y-175.9
X234.275Y-180.1
X234.275Y-192.9
X234.275Y-197.1
X234.275Y-211.15
X234.275Y-215.35
X239.775Y-135.9
X239.775Y-140.1
X239.775Y-152.9
X239.775Y-157.1
X239.775Y-175.9
X239.775Y-180.1
X239.775Y-192.9
X239.775Y-197.1
X239.775Y-211.15
X239.775Y-215.35
X245.75Y-288.5
X245.75Y-294.0
X270.75Y-288.5
X270.75Y-294.0
X295.75Y-288.5
X295.75Y-294.0
X301.85Y-101.3
X301.85Y-106.8
X306.05Y-101.3
X306.05Y-106.8
X310.25Y-101.3
X310.25Y-106.8
X320.75Y-288.5
X320.75Y-294.0
X363.725Y-101.15
X363.725Y-105.35
X363.725Y-124.15
X363.725Y-128.35
X363.725Y-149.25
X363.725Y-172.25
X363.725Y-195.25
X363.725Y-218.25
X363.725Y-241.25
X363.725Y-264.25
X369.225Y-101.15
X369.225Y-105.35
X369.225Y-124.15
X369.225Y-128.35
X369.225Y-149.25
X369.225Y-172.25
X369.225Y-195.25
X369.225Y-218.25
X369.225Y-241.25
X369.225Y-264.25
T6
X225.75Y-92.5
M30
