%TF.GenerationSoftware,KiCad,Pcbnew,10.0.1*%
%TF.CreationDate,2026-06-08T12:20:25+03:00*%
%TF.ProjectId,Storage_Armature_MCU_PCB,53746f72-6167-4655-9f41-726d61747572,rev?*%
%TF.SameCoordinates,Original*%
%TF.FileFunction,Paste,Bot*%
%TF.FilePolarity,Positive*%
%FSLAX46Y46*%
G04 Gerber Fmt 4.6, Leading zero omitted, Abs format (unit mm)*
G04 Created by KiCad (PCBNEW 10.0.1) date 2026-06-08 12:20:25*
%MOMM*%
%LPD*%
G01*
G04 APERTURE LIST*
G04 Aperture macros list*
%AMRoundRect*
0 Rectangle with rounded corners*
0 $1 Rounding radius*
0 $2 $3 $4 $5 $6 $7 $8 $9 X,Y pos of 4 corners*
0 Add a 4 corners polygon primitive as box body*
4,1,4,$2,$3,$4,$5,$6,$7,$8,$9,$2,$3,0*
0 Add four circle primitives for the rounded corners*
1,1,$1+$1,$2,$3*
1,1,$1+$1,$4,$5*
1,1,$1+$1,$6,$7*
1,1,$1+$1,$8,$9*
0 Add four rect primitives between the rounded corners*
20,1,$1+$1,$2,$3,$4,$5,0*
20,1,$1+$1,$4,$5,$6,$7,0*
20,1,$1+$1,$6,$7,$8,$9,0*
20,1,$1+$1,$8,$9,$2,$3,0*%
G04 Aperture macros list end*
%ADD10RoundRect,0.250000X0.337500X0.475000X-0.337500X0.475000X-0.337500X-0.475000X0.337500X-0.475000X0*%
%ADD11RoundRect,0.250000X0.475000X-0.337500X0.475000X0.337500X-0.475000X0.337500X-0.475000X-0.337500X0*%
%ADD12RoundRect,0.250000X-0.412500X-0.650000X0.412500X-0.650000X0.412500X0.650000X-0.412500X0.650000X0*%
%ADD13RoundRect,0.250000X0.450000X-0.350000X0.450000X0.350000X-0.450000X0.350000X-0.450000X-0.350000X0*%
%ADD14RoundRect,0.250000X-0.475000X0.337500X-0.475000X-0.337500X0.475000X-0.337500X0.475000X0.337500X0*%
%ADD15RoundRect,0.250000X-0.650000X0.412500X-0.650000X-0.412500X0.650000X-0.412500X0.650000X0.412500X0*%
%ADD16RoundRect,0.250000X-0.337500X-0.475000X0.337500X-0.475000X0.337500X0.475000X-0.337500X0.475000X0*%
%ADD17RoundRect,0.250000X-0.350000X-0.450000X0.350000X-0.450000X0.350000X0.450000X-0.350000X0.450000X0*%
%ADD18RoundRect,0.250000X-0.450000X0.350000X-0.450000X-0.350000X0.450000X-0.350000X0.450000X0.350000X0*%
%ADD19RoundRect,0.250000X0.350000X0.450000X-0.350000X0.450000X-0.350000X-0.450000X0.350000X-0.450000X0*%
%ADD20RoundRect,0.250001X-0.462499X-1.074999X0.462499X-1.074999X0.462499X1.074999X-0.462499X1.074999X0*%
%ADD21RoundRect,0.250000X0.650000X-0.412500X0.650000X0.412500X-0.650000X0.412500X-0.650000X-0.412500X0*%
%ADD22RoundRect,0.250000X0.412500X0.650000X-0.412500X0.650000X-0.412500X-0.650000X0.412500X-0.650000X0*%
%TA.AperFunction,Profile*%
%ADD23C,0.050000*%
%TD*%
%ADD24C,0.150000*%
G04 APERTURE END LIST*
D10*
%TO.C,C79*%
X348287500Y-161250000D03*
X346212500Y-161250000D03*
%TD*%
D11*
%TO.C,C18*%
X363750000Y-273787500D03*
X363750000Y-271712500D03*
%TD*%
D10*
%TO.C,C61*%
X348287500Y-184250000D03*
X346212500Y-184250000D03*
%TD*%
D12*
%TO.C,C66*%
X253437500Y-240000000D03*
X256562500Y-240000000D03*
%TD*%
D13*
%TO.C,R39*%
X272000000Y-240750000D03*
X272000000Y-238750000D03*
%TD*%
D14*
%TO.C,C63*%
X343250000Y-179712500D03*
X343250000Y-181787500D03*
%TD*%
D15*
%TO.C,C47*%
X272813195Y-173957500D03*
X272813195Y-177082500D03*
%TD*%
D10*
%TO.C,C92*%
X348287500Y-138250000D03*
X346212500Y-138250000D03*
%TD*%
D11*
%TO.C,C75*%
X361500000Y-158787500D03*
X361500000Y-156712500D03*
%TD*%
D14*
%TO.C,C2*%
X300750000Y-211462500D03*
X300750000Y-213537500D03*
%TD*%
%TO.C,C81*%
X343250000Y-156712500D03*
X343250000Y-158787500D03*
%TD*%
D10*
%TO.C,C5*%
X348287500Y-253250000D03*
X346212500Y-253250000D03*
%TD*%
D11*
%TO.C,C56*%
X363750000Y-181787500D03*
X363750000Y-179712500D03*
%TD*%
D14*
%TO.C,C20*%
X298500000Y-211462500D03*
X298500000Y-213537500D03*
%TD*%
D10*
%TO.C,C7*%
X348287500Y-230250000D03*
X346212500Y-230250000D03*
%TD*%
D11*
%TO.C,C110*%
X295250000Y-195787500D03*
X295250000Y-193712500D03*
%TD*%
%TO.C,C25*%
X361500000Y-250787500D03*
X361500000Y-248712500D03*
%TD*%
D16*
%TO.C,C95*%
X338212500Y-134750000D03*
X340287500Y-134750000D03*
%TD*%
D14*
%TO.C,C12*%
X304500000Y-211462500D03*
X304500000Y-213537500D03*
%TD*%
%TO.C,C94*%
X343250000Y-133712500D03*
X343250000Y-135787500D03*
%TD*%
D13*
%TO.C,R57*%
X263000000Y-240750000D03*
X263000000Y-238750000D03*
%TD*%
D16*
%TO.C,C106*%
X253212500Y-138000000D03*
X255287500Y-138000000D03*
%TD*%
%TO.C,C55*%
X338212500Y-203750000D03*
X340287500Y-203750000D03*
%TD*%
%TO.C,C11*%
X338212500Y-249750000D03*
X340287500Y-249750000D03*
%TD*%
D11*
%TO.C,C99*%
X351000000Y-112787500D03*
X351000000Y-110712500D03*
%TD*%
D16*
%TO.C,C53*%
X346212500Y-200000000D03*
X348287500Y-200000000D03*
%TD*%
D11*
%TO.C,C22*%
X351000000Y-273787500D03*
X351000000Y-271712500D03*
%TD*%
D10*
%TO.C,C9*%
X307787500Y-215500000D03*
X305712500Y-215500000D03*
%TD*%
%TO.C,C101*%
X348287500Y-115250000D03*
X346212500Y-115250000D03*
%TD*%
D16*
%TO.C,C86*%
X338212500Y-157750000D03*
X340287500Y-157750000D03*
%TD*%
D11*
%TO.C,C88*%
X361500000Y-135787500D03*
X361500000Y-133712500D03*
%TD*%
D17*
%TO.C,R58*%
X367500000Y-294750000D03*
X369500000Y-294750000D03*
%TD*%
D14*
%TO.C,C6*%
X343250000Y-248712500D03*
X343250000Y-250787500D03*
%TD*%
D11*
%TO.C,C90*%
X351000000Y-135787500D03*
X351000000Y-133712500D03*
%TD*%
D15*
%TO.C,C107*%
X280750000Y-133687500D03*
X280750000Y-136812500D03*
%TD*%
D11*
%TO.C,C13*%
X303250000Y-224037500D03*
X303250000Y-221962500D03*
%TD*%
D16*
%TO.C,C80*%
X346212500Y-154000000D03*
X348287500Y-154000000D03*
%TD*%
D11*
%TO.C,C32*%
X363750000Y-227787500D03*
X363750000Y-225712500D03*
%TD*%
%TO.C,C19*%
X361500000Y-273787500D03*
X361500000Y-271712500D03*
%TD*%
D16*
%TO.C,C8*%
X295462500Y-218750000D03*
X297537500Y-218750000D03*
%TD*%
D10*
%TO.C,C14*%
X307787500Y-220000000D03*
X305712500Y-220000000D03*
%TD*%
%TO.C,C15*%
X307787500Y-217750000D03*
X305712500Y-217750000D03*
%TD*%
D11*
%TO.C,C87*%
X363750000Y-135787500D03*
X363750000Y-133712500D03*
%TD*%
D16*
%TO.C,C49*%
X253212500Y-178000000D03*
X255287500Y-178000000D03*
%TD*%
D11*
%TO.C,C24*%
X363750000Y-250787500D03*
X363750000Y-248712500D03*
%TD*%
%TO.C,C23*%
X348750000Y-273787500D03*
X348750000Y-271712500D03*
%TD*%
D13*
%TO.C,R54*%
X254500000Y-226750000D03*
X254500000Y-224750000D03*
%TD*%
D14*
%TO.C,C40*%
X343250000Y-225712500D03*
X343250000Y-227787500D03*
%TD*%
D16*
%TO.C,C93*%
X346212500Y-131000000D03*
X348287500Y-131000000D03*
%TD*%
%TO.C,C64*%
X338212500Y-180750000D03*
X340287500Y-180750000D03*
%TD*%
D11*
%TO.C,C57*%
X361500000Y-181787500D03*
X361500000Y-179712500D03*
%TD*%
%TO.C,C38*%
X348750000Y-227787500D03*
X348750000Y-225712500D03*
%TD*%
%TO.C,C28*%
X351000000Y-250787500D03*
X351000000Y-248712500D03*
%TD*%
D18*
%TO.C,R1*%
X301000000Y-222000000D03*
X301000000Y-224000000D03*
%TD*%
D16*
%TO.C,C10*%
X338212500Y-272750000D03*
X340287500Y-272750000D03*
%TD*%
D14*
%TO.C,C4*%
X343250000Y-271712500D03*
X343250000Y-273787500D03*
%TD*%
D11*
%TO.C,C51*%
X348750000Y-204787500D03*
X348750000Y-202712500D03*
%TD*%
D10*
%TO.C,C3*%
X348287500Y-276250000D03*
X346212500Y-276250000D03*
%TD*%
D16*
%TO.C,C39*%
X346212500Y-223000000D03*
X348287500Y-223000000D03*
%TD*%
D11*
%TO.C,C97*%
X361500000Y-112787500D03*
X361500000Y-110712500D03*
%TD*%
D14*
%TO.C,C54*%
X343250000Y-202712500D03*
X343250000Y-204787500D03*
%TD*%
D19*
%TO.C,R2*%
X314500000Y-225500000D03*
X312500000Y-225500000D03*
%TD*%
D16*
%TO.C,C104*%
X338212500Y-111750000D03*
X340287500Y-111750000D03*
%TD*%
D11*
%TO.C,C100*%
X348750000Y-112787500D03*
X348750000Y-110712500D03*
%TD*%
D20*
%TO.C,L3*%
X241012500Y-243000000D03*
X243987500Y-243000000D03*
%TD*%
D21*
%TO.C,C68*%
X238500000Y-243062500D03*
X238500000Y-239937500D03*
%TD*%
D16*
%TO.C,C41*%
X338212500Y-226750000D03*
X340287500Y-226750000D03*
%TD*%
D11*
%TO.C,C33*%
X361500000Y-227787500D03*
X361500000Y-225712500D03*
%TD*%
%TO.C,C37*%
X351000000Y-227787500D03*
X351000000Y-225712500D03*
%TD*%
%TO.C,C59*%
X351000000Y-181787500D03*
X351000000Y-179712500D03*
%TD*%
%TO.C,C96*%
X363750000Y-112787500D03*
X363750000Y-110712500D03*
%TD*%
D16*
%TO.C,C62*%
X346212500Y-177000000D03*
X348287500Y-177000000D03*
%TD*%
%TO.C,C16*%
X346212500Y-269000000D03*
X348287500Y-269000000D03*
%TD*%
%TO.C,C21*%
X295462500Y-221000000D03*
X297537500Y-221000000D03*
%TD*%
D11*
%TO.C,C43*%
X361500000Y-204787500D03*
X361500000Y-202712500D03*
%TD*%
%TO.C,C29*%
X348750000Y-250787500D03*
X348750000Y-248712500D03*
%TD*%
D13*
%TO.C,R6*%
X310000000Y-233750000D03*
X310000000Y-231750000D03*
%TD*%
D11*
%TO.C,C78*%
X348750000Y-158787500D03*
X348750000Y-156712500D03*
%TD*%
D16*
%TO.C,C102*%
X346212500Y-108000000D03*
X348287500Y-108000000D03*
%TD*%
D14*
%TO.C,C103*%
X343250000Y-110712500D03*
X343250000Y-112787500D03*
%TD*%
D11*
%TO.C,C91*%
X348750000Y-135787500D03*
X348750000Y-133712500D03*
%TD*%
%TO.C,C109*%
X306000000Y-195787500D03*
X306000000Y-193712500D03*
%TD*%
%TO.C,C77*%
X351000000Y-158787500D03*
X351000000Y-156712500D03*
%TD*%
D15*
%TO.C,C108*%
X278250000Y-133687500D03*
X278250000Y-136812500D03*
%TD*%
D22*
%TO.C,C69*%
X244062500Y-239974749D03*
X240937500Y-239974749D03*
%TD*%
D11*
%TO.C,C1*%
X305500000Y-224037500D03*
X305500000Y-221962500D03*
%TD*%
D15*
%TO.C,C48*%
X270313195Y-173957500D03*
X270313195Y-177082500D03*
%TD*%
D11*
%TO.C,C60*%
X348750000Y-181787500D03*
X348750000Y-179712500D03*
%TD*%
D10*
%TO.C,C65*%
X314537500Y-223250000D03*
X312462500Y-223250000D03*
%TD*%
D11*
%TO.C,C42*%
X363750000Y-204787500D03*
X363750000Y-202712500D03*
%TD*%
D16*
%TO.C,C31*%
X346212500Y-246000000D03*
X348287500Y-246000000D03*
%TD*%
D13*
%TO.C,R87*%
X307000000Y-233771988D03*
X307000000Y-231771988D03*
%TD*%
D11*
%TO.C,C50*%
X351000000Y-204787500D03*
X351000000Y-202712500D03*
%TD*%
D10*
%TO.C,C52*%
X348287500Y-207250000D03*
X346212500Y-207250000D03*
%TD*%
D11*
%TO.C,C72*%
X363750000Y-158787500D03*
X363750000Y-156712500D03*
%TD*%
D23*
X220250000Y-92500000D02*
X220250000Y-302500000D01*
X220250000Y-92500000D02*
G75*
G02*
X225750000Y-87000000I5500000J0D01*
G01*
X225750000Y-308000000D02*
G75*
G02*
X220250000Y-302500000I0J5500000D01*
G01*
X225750000Y-308000000D02*
X377750000Y-308000000D01*
X231250000Y-279500000D02*
X239250000Y-279500000D01*
X231250000Y-282500000D02*
G75*
G02*
X231250000Y-279500000I0J1500000D01*
G01*
X231250000Y-282500000D02*
X239250000Y-282500000D01*
X239250000Y-279500000D02*
G75*
G02*
X239250000Y-282500000I0J-1500000D01*
G01*
X247250000Y-235500000D02*
G75*
G02*
X250250000Y-235500000I1500000J0D01*
G01*
X247250000Y-243500000D02*
X247250000Y-235500000D01*
X250250000Y-243500000D02*
G75*
G02*
X247250000Y-243500000I-1500000J0D01*
G01*
X250250000Y-243500000D02*
X250250000Y-235500000D01*
X256250000Y-279500000D02*
X264250000Y-279500000D01*
X256250000Y-282500000D02*
G75*
G02*
X256250000Y-279500000I0J1500000D01*
G01*
X256250000Y-282500000D02*
X264250000Y-282500000D01*
X263000000Y-171500000D02*
X263000000Y-184500000D01*
X263000000Y-171500000D02*
G75*
G02*
X265000000Y-171500000I1000000J0D01*
G01*
X264250000Y-279500000D02*
G75*
G02*
X264250000Y-282500000I0J-1500000D01*
G01*
X265000000Y-171500000D02*
X265000000Y-184500000D01*
X265000000Y-184500000D02*
G75*
G02*
X263000000Y-184500000I-1000000J0D01*
G01*
X266250000Y-130250000D02*
X266250000Y-148250000D01*
X266250000Y-130250000D02*
G75*
G02*
X268750000Y-130250000I1250000J0D01*
G01*
X268750000Y-148250000D02*
G75*
G02*
X266250000Y-148250000I-1250000J0D01*
G01*
X268750000Y-148250000D02*
X268750000Y-130250000D01*
X281250000Y-279500000D02*
X289250000Y-279500000D01*
X281250000Y-282500000D02*
G75*
G02*
X281250000Y-279500000I0J1500000D01*
G01*
X281250000Y-282500000D02*
X289250000Y-282500000D01*
X289250000Y-279500000D02*
G75*
G02*
X289250000Y-282500000I0J-1500000D01*
G01*
X300250000Y-126750000D02*
G75*
G02*
X300250000Y-124750000I0J1000000D01*
G01*
X300250000Y-126750000D02*
X311250000Y-126750000D01*
X306250000Y-279500000D02*
X314250000Y-279500000D01*
X306250000Y-282500000D02*
G75*
G02*
X306250000Y-279500000I0J1500000D01*
G01*
X306250000Y-282500000D02*
X314250000Y-282500000D01*
X311250000Y-124750000D02*
X300250000Y-124750000D01*
X311250000Y-124750000D02*
G75*
G02*
X311250000Y-126750000I0J-1000000D01*
G01*
X314250000Y-279500000D02*
G75*
G02*
X314250000Y-282500000I0J-1500000D01*
G01*
X354750000Y-107750000D02*
X354750000Y-115750000D01*
X354750000Y-107750000D02*
G75*
G02*
X357750000Y-107750000I1500000J0D01*
G01*
X354750000Y-130750000D02*
X354750000Y-138750000D01*
X354750000Y-130750000D02*
G75*
G02*
X357750000Y-130750000I1500000J0D01*
G01*
X354750000Y-153750000D02*
X354750000Y-161750000D01*
X354750000Y-153750000D02*
G75*
G02*
X357750000Y-153750000I1500000J0D01*
G01*
X354750000Y-176750000D02*
X354750000Y-184750000D01*
X354750000Y-176750000D02*
G75*
G02*
X357750000Y-176750000I1500000J0D01*
G01*
X354750000Y-199750000D02*
X354750000Y-207750000D01*
X354750000Y-199750000D02*
G75*
G02*
X357750000Y-199750000I1500000J0D01*
G01*
X354750000Y-222750000D02*
X354750000Y-230750000D01*
X354750000Y-222750000D02*
G75*
G02*
X357750000Y-222750000I1500000J0D01*
G01*
X354750000Y-245750000D02*
X354750000Y-253750000D01*
X354750000Y-245750000D02*
G75*
G02*
X357750000Y-245750000I1500000J0D01*
G01*
X354750000Y-268750000D02*
X354750000Y-276750000D01*
X354750000Y-268750000D02*
G75*
G02*
X357750000Y-268750000I1500000J0D01*
G01*
X357750000Y-107750000D02*
X357750000Y-115750000D01*
X357750000Y-115750000D02*
G75*
G02*
X354750000Y-115750000I-1500000J0D01*
G01*
X357750000Y-130750000D02*
X357750000Y-138750000D01*
X357750000Y-138750000D02*
G75*
G02*
X354750000Y-138750000I-1500000J0D01*
G01*
X357750000Y-153750000D02*
X357750000Y-161750000D01*
X357750000Y-161750000D02*
G75*
G02*
X354750000Y-161750000I-1500000J0D01*
G01*
X357750000Y-176750000D02*
X357750000Y-184750000D01*
X357750000Y-184750000D02*
G75*
G02*
X354750000Y-184750000I-1500000J0D01*
G01*
X357750000Y-199750000D02*
X357750000Y-207750000D01*
X357750000Y-207750000D02*
G75*
G02*
X354750000Y-207750000I-1500000J0D01*
G01*
X357750000Y-222750000D02*
X357750000Y-230750000D01*
X357750000Y-230750000D02*
G75*
G02*
X354750000Y-230750000I-1500000J0D01*
G01*
X357750000Y-245750000D02*
X357750000Y-253750000D01*
X357750000Y-253750000D02*
G75*
G02*
X354750000Y-253750000I-1500000J0D01*
G01*
X357750000Y-268750000D02*
X357750000Y-276750000D01*
X357750000Y-276750000D02*
G75*
G02*
X354750000Y-276750000I-1500000J0D01*
G01*
X377750000Y-87000000D02*
X225750001Y-87000000D01*
X377750000Y-87000000D02*
G75*
G02*
X383250000Y-92500000I0J-5500000D01*
G01*
X383250000Y-302500000D02*
G75*
G02*
X377750000Y-308000000I-5500000J0D01*
G01*
X383250000Y-302500000D02*
X383250000Y-92500000D01*
D24*
X401650057Y-202595237D02*
X401602438Y-202547618D01*
X401602438Y-202547618D02*
X401554819Y-202452380D01*
X401554819Y-202452380D02*
X401554819Y-202214285D01*
X401554819Y-202214285D02*
X401602438Y-202119047D01*
X401602438Y-202119047D02*
X401650057Y-202071428D01*
X401650057Y-202071428D02*
X401745295Y-202023809D01*
X401745295Y-202023809D02*
X401840533Y-202023809D01*
X401840533Y-202023809D02*
X401983390Y-202071428D01*
X401983390Y-202071428D02*
X402554819Y-202642856D01*
X402554819Y-202642856D02*
X402554819Y-202023809D01*
X401650057Y-201642856D02*
X401602438Y-201595237D01*
X401602438Y-201595237D02*
X401554819Y-201499999D01*
X401554819Y-201499999D02*
X401554819Y-201261904D01*
X401554819Y-201261904D02*
X401602438Y-201166666D01*
X401602438Y-201166666D02*
X401650057Y-201119047D01*
X401650057Y-201119047D02*
X401745295Y-201071428D01*
X401745295Y-201071428D02*
X401840533Y-201071428D01*
X401840533Y-201071428D02*
X401983390Y-201119047D01*
X401983390Y-201119047D02*
X402554819Y-201690475D01*
X402554819Y-201690475D02*
X402554819Y-201071428D01*
X402554819Y-200119047D02*
X402554819Y-200690475D01*
X402554819Y-200404761D02*
X401554819Y-200404761D01*
X401554819Y-200404761D02*
X401697676Y-200499999D01*
X401697676Y-200499999D02*
X401792914Y-200595237D01*
X401792914Y-200595237D02*
X401840533Y-200690475D01*
X402507200Y-199642856D02*
X402554819Y-199642856D01*
X402554819Y-199642856D02*
X402650057Y-199690475D01*
X402650057Y-199690475D02*
X402697676Y-199738094D01*
X401554819Y-199023809D02*
X401554819Y-198928571D01*
X401554819Y-198928571D02*
X401602438Y-198833333D01*
X401602438Y-198833333D02*
X401650057Y-198785714D01*
X401650057Y-198785714D02*
X401745295Y-198738095D01*
X401745295Y-198738095D02*
X401935771Y-198690476D01*
X401935771Y-198690476D02*
X402173866Y-198690476D01*
X402173866Y-198690476D02*
X402364342Y-198738095D01*
X402364342Y-198738095D02*
X402459580Y-198785714D01*
X402459580Y-198785714D02*
X402507200Y-198833333D01*
X402507200Y-198833333D02*
X402554819Y-198928571D01*
X402554819Y-198928571D02*
X402554819Y-199023809D01*
X402554819Y-199023809D02*
X402507200Y-199119047D01*
X402507200Y-199119047D02*
X402459580Y-199166666D01*
X402459580Y-199166666D02*
X402364342Y-199214285D01*
X402364342Y-199214285D02*
X402173866Y-199261904D01*
X402173866Y-199261904D02*
X401935771Y-199261904D01*
X401935771Y-199261904D02*
X401745295Y-199214285D01*
X401745295Y-199214285D02*
X401650057Y-199166666D01*
X401650057Y-199166666D02*
X401602438Y-199119047D01*
X401602438Y-199119047D02*
X401554819Y-199023809D01*
X401554819Y-198071428D02*
X401554819Y-197976190D01*
X401554819Y-197976190D02*
X401602438Y-197880952D01*
X401602438Y-197880952D02*
X401650057Y-197833333D01*
X401650057Y-197833333D02*
X401745295Y-197785714D01*
X401745295Y-197785714D02*
X401935771Y-197738095D01*
X401935771Y-197738095D02*
X402173866Y-197738095D01*
X402173866Y-197738095D02*
X402364342Y-197785714D01*
X402364342Y-197785714D02*
X402459580Y-197833333D01*
X402459580Y-197833333D02*
X402507200Y-197880952D01*
X402507200Y-197880952D02*
X402554819Y-197976190D01*
X402554819Y-197976190D02*
X402554819Y-198071428D01*
X402554819Y-198071428D02*
X402507200Y-198166666D01*
X402507200Y-198166666D02*
X402459580Y-198214285D01*
X402459580Y-198214285D02*
X402364342Y-198261904D01*
X402364342Y-198261904D02*
X402173866Y-198309523D01*
X402173866Y-198309523D02*
X401935771Y-198309523D01*
X401935771Y-198309523D02*
X401745295Y-198261904D01*
X401745295Y-198261904D02*
X401650057Y-198214285D01*
X401650057Y-198214285D02*
X401602438Y-198166666D01*
X401602438Y-198166666D02*
X401554819Y-198071428D01*
X401554819Y-197119047D02*
X401554819Y-197023809D01*
X401554819Y-197023809D02*
X401602438Y-196928571D01*
X401602438Y-196928571D02*
X401650057Y-196880952D01*
X401650057Y-196880952D02*
X401745295Y-196833333D01*
X401745295Y-196833333D02*
X401935771Y-196785714D01*
X401935771Y-196785714D02*
X402173866Y-196785714D01*
X402173866Y-196785714D02*
X402364342Y-196833333D01*
X402364342Y-196833333D02*
X402459580Y-196880952D01*
X402459580Y-196880952D02*
X402507200Y-196928571D01*
X402507200Y-196928571D02*
X402554819Y-197023809D01*
X402554819Y-197023809D02*
X402554819Y-197119047D01*
X402554819Y-197119047D02*
X402507200Y-197214285D01*
X402507200Y-197214285D02*
X402459580Y-197261904D01*
X402459580Y-197261904D02*
X402364342Y-197309523D01*
X402364342Y-197309523D02*
X402173866Y-197357142D01*
X402173866Y-197357142D02*
X401935771Y-197357142D01*
X401935771Y-197357142D02*
X401745295Y-197309523D01*
X401745295Y-197309523D02*
X401650057Y-197261904D01*
X401650057Y-197261904D02*
X401602438Y-197214285D01*
X401602438Y-197214285D02*
X401554819Y-197119047D01*
X401554819Y-196166666D02*
X401554819Y-196071428D01*
X401554819Y-196071428D02*
X401602438Y-195976190D01*
X401602438Y-195976190D02*
X401650057Y-195928571D01*
X401650057Y-195928571D02*
X401745295Y-195880952D01*
X401745295Y-195880952D02*
X401935771Y-195833333D01*
X401935771Y-195833333D02*
X402173866Y-195833333D01*
X402173866Y-195833333D02*
X402364342Y-195880952D01*
X402364342Y-195880952D02*
X402459580Y-195928571D01*
X402459580Y-195928571D02*
X402507200Y-195976190D01*
X402507200Y-195976190D02*
X402554819Y-196071428D01*
X402554819Y-196071428D02*
X402554819Y-196166666D01*
X402554819Y-196166666D02*
X402507200Y-196261904D01*
X402507200Y-196261904D02*
X402459580Y-196309523D01*
X402459580Y-196309523D02*
X402364342Y-196357142D01*
X402364342Y-196357142D02*
X402173866Y-196404761D01*
X402173866Y-196404761D02*
X401935771Y-196404761D01*
X401935771Y-196404761D02*
X401745295Y-196357142D01*
X401745295Y-196357142D02*
X401650057Y-196309523D01*
X401650057Y-196309523D02*
X401602438Y-196261904D01*
X401602438Y-196261904D02*
X401554819Y-196166666D01*
X402554819Y-194642856D02*
X401888152Y-194642856D01*
X401983390Y-194642856D02*
X401935771Y-194595237D01*
X401935771Y-194595237D02*
X401888152Y-194499999D01*
X401888152Y-194499999D02*
X401888152Y-194357142D01*
X401888152Y-194357142D02*
X401935771Y-194261904D01*
X401935771Y-194261904D02*
X402031009Y-194214285D01*
X402031009Y-194214285D02*
X402554819Y-194214285D01*
X402031009Y-194214285D02*
X401935771Y-194166666D01*
X401935771Y-194166666D02*
X401888152Y-194071428D01*
X401888152Y-194071428D02*
X401888152Y-193928571D01*
X401888152Y-193928571D02*
X401935771Y-193833332D01*
X401935771Y-193833332D02*
X402031009Y-193785713D01*
X402031009Y-193785713D02*
X402554819Y-193785713D01*
X402554819Y-193309523D02*
X401888152Y-193309523D01*
X401983390Y-193309523D02*
X401935771Y-193261904D01*
X401935771Y-193261904D02*
X401888152Y-193166666D01*
X401888152Y-193166666D02*
X401888152Y-193023809D01*
X401888152Y-193023809D02*
X401935771Y-192928571D01*
X401935771Y-192928571D02*
X402031009Y-192880952D01*
X402031009Y-192880952D02*
X402554819Y-192880952D01*
X402031009Y-192880952D02*
X401935771Y-192833333D01*
X401935771Y-192833333D02*
X401888152Y-192738095D01*
X401888152Y-192738095D02*
X401888152Y-192595238D01*
X401888152Y-192595238D02*
X401935771Y-192499999D01*
X401935771Y-192499999D02*
X402031009Y-192452380D01*
X402031009Y-192452380D02*
X402554819Y-192452380D01*
D23*
X378250000Y-87000000D02*
X403836420Y-87000000D01*
X403836420Y-308000000D02*
X378250000Y-308000000D01*
X403250000Y-87000000D02*
X403250000Y-308000000D01*
X403250000Y-87000000D02*
X403836421Y-88126504D01*
X403250000Y-87000000D02*
X402663579Y-88126504D01*
X403250000Y-308000000D02*
X402663579Y-306873496D01*
X403250000Y-308000000D02*
X403836421Y-306873496D01*
D24*
X297226190Y-65804819D02*
X296654762Y-65804819D01*
X296940476Y-65804819D02*
X296940476Y-64804819D01*
X296940476Y-64804819D02*
X296845238Y-64947676D01*
X296845238Y-64947676D02*
X296750000Y-65042914D01*
X296750000Y-65042914D02*
X296654762Y-65090533D01*
X298083333Y-64804819D02*
X297892857Y-64804819D01*
X297892857Y-64804819D02*
X297797619Y-64852438D01*
X297797619Y-64852438D02*
X297750000Y-64900057D01*
X297750000Y-64900057D02*
X297654762Y-65042914D01*
X297654762Y-65042914D02*
X297607143Y-65233390D01*
X297607143Y-65233390D02*
X297607143Y-65614342D01*
X297607143Y-65614342D02*
X297654762Y-65709580D01*
X297654762Y-65709580D02*
X297702381Y-65757200D01*
X297702381Y-65757200D02*
X297797619Y-65804819D01*
X297797619Y-65804819D02*
X297988095Y-65804819D01*
X297988095Y-65804819D02*
X298083333Y-65757200D01*
X298083333Y-65757200D02*
X298130952Y-65709580D01*
X298130952Y-65709580D02*
X298178571Y-65614342D01*
X298178571Y-65614342D02*
X298178571Y-65376247D01*
X298178571Y-65376247D02*
X298130952Y-65281009D01*
X298130952Y-65281009D02*
X298083333Y-65233390D01*
X298083333Y-65233390D02*
X297988095Y-65185771D01*
X297988095Y-65185771D02*
X297797619Y-65185771D01*
X297797619Y-65185771D02*
X297702381Y-65233390D01*
X297702381Y-65233390D02*
X297654762Y-65281009D01*
X297654762Y-65281009D02*
X297607143Y-65376247D01*
X298511905Y-64804819D02*
X299130952Y-64804819D01*
X299130952Y-64804819D02*
X298797619Y-65185771D01*
X298797619Y-65185771D02*
X298940476Y-65185771D01*
X298940476Y-65185771D02*
X299035714Y-65233390D01*
X299035714Y-65233390D02*
X299083333Y-65281009D01*
X299083333Y-65281009D02*
X299130952Y-65376247D01*
X299130952Y-65376247D02*
X299130952Y-65614342D01*
X299130952Y-65614342D02*
X299083333Y-65709580D01*
X299083333Y-65709580D02*
X299035714Y-65757200D01*
X299035714Y-65757200D02*
X298940476Y-65804819D01*
X298940476Y-65804819D02*
X298654762Y-65804819D01*
X298654762Y-65804819D02*
X298559524Y-65757200D01*
X298559524Y-65757200D02*
X298511905Y-65709580D01*
X299607143Y-65757200D02*
X299607143Y-65804819D01*
X299607143Y-65804819D02*
X299559524Y-65900057D01*
X299559524Y-65900057D02*
X299511905Y-65947676D01*
X300226190Y-64804819D02*
X300321428Y-64804819D01*
X300321428Y-64804819D02*
X300416666Y-64852438D01*
X300416666Y-64852438D02*
X300464285Y-64900057D01*
X300464285Y-64900057D02*
X300511904Y-64995295D01*
X300511904Y-64995295D02*
X300559523Y-65185771D01*
X300559523Y-65185771D02*
X300559523Y-65423866D01*
X300559523Y-65423866D02*
X300511904Y-65614342D01*
X300511904Y-65614342D02*
X300464285Y-65709580D01*
X300464285Y-65709580D02*
X300416666Y-65757200D01*
X300416666Y-65757200D02*
X300321428Y-65804819D01*
X300321428Y-65804819D02*
X300226190Y-65804819D01*
X300226190Y-65804819D02*
X300130952Y-65757200D01*
X300130952Y-65757200D02*
X300083333Y-65709580D01*
X300083333Y-65709580D02*
X300035714Y-65614342D01*
X300035714Y-65614342D02*
X299988095Y-65423866D01*
X299988095Y-65423866D02*
X299988095Y-65185771D01*
X299988095Y-65185771D02*
X300035714Y-64995295D01*
X300035714Y-64995295D02*
X300083333Y-64900057D01*
X300083333Y-64900057D02*
X300130952Y-64852438D01*
X300130952Y-64852438D02*
X300226190Y-64804819D01*
X301178571Y-64804819D02*
X301273809Y-64804819D01*
X301273809Y-64804819D02*
X301369047Y-64852438D01*
X301369047Y-64852438D02*
X301416666Y-64900057D01*
X301416666Y-64900057D02*
X301464285Y-64995295D01*
X301464285Y-64995295D02*
X301511904Y-65185771D01*
X301511904Y-65185771D02*
X301511904Y-65423866D01*
X301511904Y-65423866D02*
X301464285Y-65614342D01*
X301464285Y-65614342D02*
X301416666Y-65709580D01*
X301416666Y-65709580D02*
X301369047Y-65757200D01*
X301369047Y-65757200D02*
X301273809Y-65804819D01*
X301273809Y-65804819D02*
X301178571Y-65804819D01*
X301178571Y-65804819D02*
X301083333Y-65757200D01*
X301083333Y-65757200D02*
X301035714Y-65709580D01*
X301035714Y-65709580D02*
X300988095Y-65614342D01*
X300988095Y-65614342D02*
X300940476Y-65423866D01*
X300940476Y-65423866D02*
X300940476Y-65185771D01*
X300940476Y-65185771D02*
X300988095Y-64995295D01*
X300988095Y-64995295D02*
X301035714Y-64900057D01*
X301035714Y-64900057D02*
X301083333Y-64852438D01*
X301083333Y-64852438D02*
X301178571Y-64804819D01*
X302130952Y-64804819D02*
X302226190Y-64804819D01*
X302226190Y-64804819D02*
X302321428Y-64852438D01*
X302321428Y-64852438D02*
X302369047Y-64900057D01*
X302369047Y-64900057D02*
X302416666Y-64995295D01*
X302416666Y-64995295D02*
X302464285Y-65185771D01*
X302464285Y-65185771D02*
X302464285Y-65423866D01*
X302464285Y-65423866D02*
X302416666Y-65614342D01*
X302416666Y-65614342D02*
X302369047Y-65709580D01*
X302369047Y-65709580D02*
X302321428Y-65757200D01*
X302321428Y-65757200D02*
X302226190Y-65804819D01*
X302226190Y-65804819D02*
X302130952Y-65804819D01*
X302130952Y-65804819D02*
X302035714Y-65757200D01*
X302035714Y-65757200D02*
X301988095Y-65709580D01*
X301988095Y-65709580D02*
X301940476Y-65614342D01*
X301940476Y-65614342D02*
X301892857Y-65423866D01*
X301892857Y-65423866D02*
X301892857Y-65185771D01*
X301892857Y-65185771D02*
X301940476Y-64995295D01*
X301940476Y-64995295D02*
X301988095Y-64900057D01*
X301988095Y-64900057D02*
X302035714Y-64852438D01*
X302035714Y-64852438D02*
X302130952Y-64804819D01*
X303083333Y-64804819D02*
X303178571Y-64804819D01*
X303178571Y-64804819D02*
X303273809Y-64852438D01*
X303273809Y-64852438D02*
X303321428Y-64900057D01*
X303321428Y-64900057D02*
X303369047Y-64995295D01*
X303369047Y-64995295D02*
X303416666Y-65185771D01*
X303416666Y-65185771D02*
X303416666Y-65423866D01*
X303416666Y-65423866D02*
X303369047Y-65614342D01*
X303369047Y-65614342D02*
X303321428Y-65709580D01*
X303321428Y-65709580D02*
X303273809Y-65757200D01*
X303273809Y-65757200D02*
X303178571Y-65804819D01*
X303178571Y-65804819D02*
X303083333Y-65804819D01*
X303083333Y-65804819D02*
X302988095Y-65757200D01*
X302988095Y-65757200D02*
X302940476Y-65709580D01*
X302940476Y-65709580D02*
X302892857Y-65614342D01*
X302892857Y-65614342D02*
X302845238Y-65423866D01*
X302845238Y-65423866D02*
X302845238Y-65185771D01*
X302845238Y-65185771D02*
X302892857Y-64995295D01*
X302892857Y-64995295D02*
X302940476Y-64900057D01*
X302940476Y-64900057D02*
X302988095Y-64852438D01*
X302988095Y-64852438D02*
X303083333Y-64804819D01*
X304607143Y-65804819D02*
X304607143Y-65138152D01*
X304607143Y-65233390D02*
X304654762Y-65185771D01*
X304654762Y-65185771D02*
X304750000Y-65138152D01*
X304750000Y-65138152D02*
X304892857Y-65138152D01*
X304892857Y-65138152D02*
X304988095Y-65185771D01*
X304988095Y-65185771D02*
X305035714Y-65281009D01*
X305035714Y-65281009D02*
X305035714Y-65804819D01*
X305035714Y-65281009D02*
X305083333Y-65185771D01*
X305083333Y-65185771D02*
X305178571Y-65138152D01*
X305178571Y-65138152D02*
X305321428Y-65138152D01*
X305321428Y-65138152D02*
X305416667Y-65185771D01*
X305416667Y-65185771D02*
X305464286Y-65281009D01*
X305464286Y-65281009D02*
X305464286Y-65804819D01*
X305940476Y-65804819D02*
X305940476Y-65138152D01*
X305940476Y-65233390D02*
X305988095Y-65185771D01*
X305988095Y-65185771D02*
X306083333Y-65138152D01*
X306083333Y-65138152D02*
X306226190Y-65138152D01*
X306226190Y-65138152D02*
X306321428Y-65185771D01*
X306321428Y-65185771D02*
X306369047Y-65281009D01*
X306369047Y-65281009D02*
X306369047Y-65804819D01*
X306369047Y-65281009D02*
X306416666Y-65185771D01*
X306416666Y-65185771D02*
X306511904Y-65138152D01*
X306511904Y-65138152D02*
X306654761Y-65138152D01*
X306654761Y-65138152D02*
X306750000Y-65185771D01*
X306750000Y-65185771D02*
X306797619Y-65281009D01*
X306797619Y-65281009D02*
X306797619Y-65804819D01*
D23*
X220250000Y-92000000D02*
X220250000Y-65913580D01*
X383250000Y-65913580D02*
X383250000Y-92000000D01*
X220250000Y-66500000D02*
X383250000Y-66500000D01*
X220250000Y-66500000D02*
X221376504Y-65913579D01*
X220250000Y-66500000D02*
X221376504Y-67086421D01*
X383250000Y-66500000D02*
X382123496Y-67086421D01*
X383250000Y-66500000D02*
X382123496Y-65913579D01*
D24*
X297226190Y-78054819D02*
X296654762Y-78054819D01*
X296940476Y-78054819D02*
X296940476Y-77054819D01*
X296940476Y-77054819D02*
X296845238Y-77197676D01*
X296845238Y-77197676D02*
X296750000Y-77292914D01*
X296750000Y-77292914D02*
X296654762Y-77340533D01*
X298130952Y-77054819D02*
X297654762Y-77054819D01*
X297654762Y-77054819D02*
X297607143Y-77531009D01*
X297607143Y-77531009D02*
X297654762Y-77483390D01*
X297654762Y-77483390D02*
X297750000Y-77435771D01*
X297750000Y-77435771D02*
X297988095Y-77435771D01*
X297988095Y-77435771D02*
X298083333Y-77483390D01*
X298083333Y-77483390D02*
X298130952Y-77531009D01*
X298130952Y-77531009D02*
X298178571Y-77626247D01*
X298178571Y-77626247D02*
X298178571Y-77864342D01*
X298178571Y-77864342D02*
X298130952Y-77959580D01*
X298130952Y-77959580D02*
X298083333Y-78007200D01*
X298083333Y-78007200D02*
X297988095Y-78054819D01*
X297988095Y-78054819D02*
X297750000Y-78054819D01*
X297750000Y-78054819D02*
X297654762Y-78007200D01*
X297654762Y-78007200D02*
X297607143Y-77959580D01*
X298559524Y-77150057D02*
X298607143Y-77102438D01*
X298607143Y-77102438D02*
X298702381Y-77054819D01*
X298702381Y-77054819D02*
X298940476Y-77054819D01*
X298940476Y-77054819D02*
X299035714Y-77102438D01*
X299035714Y-77102438D02*
X299083333Y-77150057D01*
X299083333Y-77150057D02*
X299130952Y-77245295D01*
X299130952Y-77245295D02*
X299130952Y-77340533D01*
X299130952Y-77340533D02*
X299083333Y-77483390D01*
X299083333Y-77483390D02*
X298511905Y-78054819D01*
X298511905Y-78054819D02*
X299130952Y-78054819D01*
X299607143Y-78007200D02*
X299607143Y-78054819D01*
X299607143Y-78054819D02*
X299559524Y-78150057D01*
X299559524Y-78150057D02*
X299511905Y-78197676D01*
X300226190Y-77054819D02*
X300321428Y-77054819D01*
X300321428Y-77054819D02*
X300416666Y-77102438D01*
X300416666Y-77102438D02*
X300464285Y-77150057D01*
X300464285Y-77150057D02*
X300511904Y-77245295D01*
X300511904Y-77245295D02*
X300559523Y-77435771D01*
X300559523Y-77435771D02*
X300559523Y-77673866D01*
X300559523Y-77673866D02*
X300511904Y-77864342D01*
X300511904Y-77864342D02*
X300464285Y-77959580D01*
X300464285Y-77959580D02*
X300416666Y-78007200D01*
X300416666Y-78007200D02*
X300321428Y-78054819D01*
X300321428Y-78054819D02*
X300226190Y-78054819D01*
X300226190Y-78054819D02*
X300130952Y-78007200D01*
X300130952Y-78007200D02*
X300083333Y-77959580D01*
X300083333Y-77959580D02*
X300035714Y-77864342D01*
X300035714Y-77864342D02*
X299988095Y-77673866D01*
X299988095Y-77673866D02*
X299988095Y-77435771D01*
X299988095Y-77435771D02*
X300035714Y-77245295D01*
X300035714Y-77245295D02*
X300083333Y-77150057D01*
X300083333Y-77150057D02*
X300130952Y-77102438D01*
X300130952Y-77102438D02*
X300226190Y-77054819D01*
X301178571Y-77054819D02*
X301273809Y-77054819D01*
X301273809Y-77054819D02*
X301369047Y-77102438D01*
X301369047Y-77102438D02*
X301416666Y-77150057D01*
X301416666Y-77150057D02*
X301464285Y-77245295D01*
X301464285Y-77245295D02*
X301511904Y-77435771D01*
X301511904Y-77435771D02*
X301511904Y-77673866D01*
X301511904Y-77673866D02*
X301464285Y-77864342D01*
X301464285Y-77864342D02*
X301416666Y-77959580D01*
X301416666Y-77959580D02*
X301369047Y-78007200D01*
X301369047Y-78007200D02*
X301273809Y-78054819D01*
X301273809Y-78054819D02*
X301178571Y-78054819D01*
X301178571Y-78054819D02*
X301083333Y-78007200D01*
X301083333Y-78007200D02*
X301035714Y-77959580D01*
X301035714Y-77959580D02*
X300988095Y-77864342D01*
X300988095Y-77864342D02*
X300940476Y-77673866D01*
X300940476Y-77673866D02*
X300940476Y-77435771D01*
X300940476Y-77435771D02*
X300988095Y-77245295D01*
X300988095Y-77245295D02*
X301035714Y-77150057D01*
X301035714Y-77150057D02*
X301083333Y-77102438D01*
X301083333Y-77102438D02*
X301178571Y-77054819D01*
X302130952Y-77054819D02*
X302226190Y-77054819D01*
X302226190Y-77054819D02*
X302321428Y-77102438D01*
X302321428Y-77102438D02*
X302369047Y-77150057D01*
X302369047Y-77150057D02*
X302416666Y-77245295D01*
X302416666Y-77245295D02*
X302464285Y-77435771D01*
X302464285Y-77435771D02*
X302464285Y-77673866D01*
X302464285Y-77673866D02*
X302416666Y-77864342D01*
X302416666Y-77864342D02*
X302369047Y-77959580D01*
X302369047Y-77959580D02*
X302321428Y-78007200D01*
X302321428Y-78007200D02*
X302226190Y-78054819D01*
X302226190Y-78054819D02*
X302130952Y-78054819D01*
X302130952Y-78054819D02*
X302035714Y-78007200D01*
X302035714Y-78007200D02*
X301988095Y-77959580D01*
X301988095Y-77959580D02*
X301940476Y-77864342D01*
X301940476Y-77864342D02*
X301892857Y-77673866D01*
X301892857Y-77673866D02*
X301892857Y-77435771D01*
X301892857Y-77435771D02*
X301940476Y-77245295D01*
X301940476Y-77245295D02*
X301988095Y-77150057D01*
X301988095Y-77150057D02*
X302035714Y-77102438D01*
X302035714Y-77102438D02*
X302130952Y-77054819D01*
X303083333Y-77054819D02*
X303178571Y-77054819D01*
X303178571Y-77054819D02*
X303273809Y-77102438D01*
X303273809Y-77102438D02*
X303321428Y-77150057D01*
X303321428Y-77150057D02*
X303369047Y-77245295D01*
X303369047Y-77245295D02*
X303416666Y-77435771D01*
X303416666Y-77435771D02*
X303416666Y-77673866D01*
X303416666Y-77673866D02*
X303369047Y-77864342D01*
X303369047Y-77864342D02*
X303321428Y-77959580D01*
X303321428Y-77959580D02*
X303273809Y-78007200D01*
X303273809Y-78007200D02*
X303178571Y-78054819D01*
X303178571Y-78054819D02*
X303083333Y-78054819D01*
X303083333Y-78054819D02*
X302988095Y-78007200D01*
X302988095Y-78007200D02*
X302940476Y-77959580D01*
X302940476Y-77959580D02*
X302892857Y-77864342D01*
X302892857Y-77864342D02*
X302845238Y-77673866D01*
X302845238Y-77673866D02*
X302845238Y-77435771D01*
X302845238Y-77435771D02*
X302892857Y-77245295D01*
X302892857Y-77245295D02*
X302940476Y-77150057D01*
X302940476Y-77150057D02*
X302988095Y-77102438D01*
X302988095Y-77102438D02*
X303083333Y-77054819D01*
X304607143Y-78054819D02*
X304607143Y-77388152D01*
X304607143Y-77483390D02*
X304654762Y-77435771D01*
X304654762Y-77435771D02*
X304750000Y-77388152D01*
X304750000Y-77388152D02*
X304892857Y-77388152D01*
X304892857Y-77388152D02*
X304988095Y-77435771D01*
X304988095Y-77435771D02*
X305035714Y-77531009D01*
X305035714Y-77531009D02*
X305035714Y-78054819D01*
X305035714Y-77531009D02*
X305083333Y-77435771D01*
X305083333Y-77435771D02*
X305178571Y-77388152D01*
X305178571Y-77388152D02*
X305321428Y-77388152D01*
X305321428Y-77388152D02*
X305416667Y-77435771D01*
X305416667Y-77435771D02*
X305464286Y-77531009D01*
X305464286Y-77531009D02*
X305464286Y-78054819D01*
X305940476Y-78054819D02*
X305940476Y-77388152D01*
X305940476Y-77483390D02*
X305988095Y-77435771D01*
X305988095Y-77435771D02*
X306083333Y-77388152D01*
X306083333Y-77388152D02*
X306226190Y-77388152D01*
X306226190Y-77388152D02*
X306321428Y-77435771D01*
X306321428Y-77435771D02*
X306369047Y-77531009D01*
X306369047Y-77531009D02*
X306369047Y-78054819D01*
X306369047Y-77531009D02*
X306416666Y-77435771D01*
X306416666Y-77435771D02*
X306511904Y-77388152D01*
X306511904Y-77388152D02*
X306654761Y-77388152D01*
X306654761Y-77388152D02*
X306750000Y-77435771D01*
X306750000Y-77435771D02*
X306797619Y-77531009D01*
X306797619Y-77531009D02*
X306797619Y-78054819D01*
D23*
X225750000Y-92000000D02*
X225750000Y-78163580D01*
X377750000Y-78163580D02*
X377750000Y-92000000D01*
X225750000Y-78750000D02*
X377750000Y-78750000D01*
X225750000Y-78750000D02*
X226876504Y-78163579D01*
X225750000Y-78750000D02*
X226876504Y-79336421D01*
X377750000Y-78750000D02*
X376623496Y-79336421D01*
X377750000Y-78750000D02*
X376623496Y-78163579D01*
D24*
X393650057Y-202595237D02*
X393602438Y-202547618D01*
X393602438Y-202547618D02*
X393554819Y-202452380D01*
X393554819Y-202452380D02*
X393554819Y-202214285D01*
X393554819Y-202214285D02*
X393602438Y-202119047D01*
X393602438Y-202119047D02*
X393650057Y-202071428D01*
X393650057Y-202071428D02*
X393745295Y-202023809D01*
X393745295Y-202023809D02*
X393840533Y-202023809D01*
X393840533Y-202023809D02*
X393983390Y-202071428D01*
X393983390Y-202071428D02*
X394554819Y-202642856D01*
X394554819Y-202642856D02*
X394554819Y-202023809D01*
X394554819Y-201071428D02*
X394554819Y-201642856D01*
X394554819Y-201357142D02*
X393554819Y-201357142D01*
X393554819Y-201357142D02*
X393697676Y-201452380D01*
X393697676Y-201452380D02*
X393792914Y-201547618D01*
X393792914Y-201547618D02*
X393840533Y-201642856D01*
X393554819Y-200452380D02*
X393554819Y-200357142D01*
X393554819Y-200357142D02*
X393602438Y-200261904D01*
X393602438Y-200261904D02*
X393650057Y-200214285D01*
X393650057Y-200214285D02*
X393745295Y-200166666D01*
X393745295Y-200166666D02*
X393935771Y-200119047D01*
X393935771Y-200119047D02*
X394173866Y-200119047D01*
X394173866Y-200119047D02*
X394364342Y-200166666D01*
X394364342Y-200166666D02*
X394459580Y-200214285D01*
X394459580Y-200214285D02*
X394507200Y-200261904D01*
X394507200Y-200261904D02*
X394554819Y-200357142D01*
X394554819Y-200357142D02*
X394554819Y-200452380D01*
X394554819Y-200452380D02*
X394507200Y-200547618D01*
X394507200Y-200547618D02*
X394459580Y-200595237D01*
X394459580Y-200595237D02*
X394364342Y-200642856D01*
X394364342Y-200642856D02*
X394173866Y-200690475D01*
X394173866Y-200690475D02*
X393935771Y-200690475D01*
X393935771Y-200690475D02*
X393745295Y-200642856D01*
X393745295Y-200642856D02*
X393650057Y-200595237D01*
X393650057Y-200595237D02*
X393602438Y-200547618D01*
X393602438Y-200547618D02*
X393554819Y-200452380D01*
X394507200Y-199642856D02*
X394554819Y-199642856D01*
X394554819Y-199642856D02*
X394650057Y-199690475D01*
X394650057Y-199690475D02*
X394697676Y-199738094D01*
X393554819Y-199023809D02*
X393554819Y-198928571D01*
X393554819Y-198928571D02*
X393602438Y-198833333D01*
X393602438Y-198833333D02*
X393650057Y-198785714D01*
X393650057Y-198785714D02*
X393745295Y-198738095D01*
X393745295Y-198738095D02*
X393935771Y-198690476D01*
X393935771Y-198690476D02*
X394173866Y-198690476D01*
X394173866Y-198690476D02*
X394364342Y-198738095D01*
X394364342Y-198738095D02*
X394459580Y-198785714D01*
X394459580Y-198785714D02*
X394507200Y-198833333D01*
X394507200Y-198833333D02*
X394554819Y-198928571D01*
X394554819Y-198928571D02*
X394554819Y-199023809D01*
X394554819Y-199023809D02*
X394507200Y-199119047D01*
X394507200Y-199119047D02*
X394459580Y-199166666D01*
X394459580Y-199166666D02*
X394364342Y-199214285D01*
X394364342Y-199214285D02*
X394173866Y-199261904D01*
X394173866Y-199261904D02*
X393935771Y-199261904D01*
X393935771Y-199261904D02*
X393745295Y-199214285D01*
X393745295Y-199214285D02*
X393650057Y-199166666D01*
X393650057Y-199166666D02*
X393602438Y-199119047D01*
X393602438Y-199119047D02*
X393554819Y-199023809D01*
X393554819Y-198071428D02*
X393554819Y-197976190D01*
X393554819Y-197976190D02*
X393602438Y-197880952D01*
X393602438Y-197880952D02*
X393650057Y-197833333D01*
X393650057Y-197833333D02*
X393745295Y-197785714D01*
X393745295Y-197785714D02*
X393935771Y-197738095D01*
X393935771Y-197738095D02*
X394173866Y-197738095D01*
X394173866Y-197738095D02*
X394364342Y-197785714D01*
X394364342Y-197785714D02*
X394459580Y-197833333D01*
X394459580Y-197833333D02*
X394507200Y-197880952D01*
X394507200Y-197880952D02*
X394554819Y-197976190D01*
X394554819Y-197976190D02*
X394554819Y-198071428D01*
X394554819Y-198071428D02*
X394507200Y-198166666D01*
X394507200Y-198166666D02*
X394459580Y-198214285D01*
X394459580Y-198214285D02*
X394364342Y-198261904D01*
X394364342Y-198261904D02*
X394173866Y-198309523D01*
X394173866Y-198309523D02*
X393935771Y-198309523D01*
X393935771Y-198309523D02*
X393745295Y-198261904D01*
X393745295Y-198261904D02*
X393650057Y-198214285D01*
X393650057Y-198214285D02*
X393602438Y-198166666D01*
X393602438Y-198166666D02*
X393554819Y-198071428D01*
X393554819Y-197119047D02*
X393554819Y-197023809D01*
X393554819Y-197023809D02*
X393602438Y-196928571D01*
X393602438Y-196928571D02*
X393650057Y-196880952D01*
X393650057Y-196880952D02*
X393745295Y-196833333D01*
X393745295Y-196833333D02*
X393935771Y-196785714D01*
X393935771Y-196785714D02*
X394173866Y-196785714D01*
X394173866Y-196785714D02*
X394364342Y-196833333D01*
X394364342Y-196833333D02*
X394459580Y-196880952D01*
X394459580Y-196880952D02*
X394507200Y-196928571D01*
X394507200Y-196928571D02*
X394554819Y-197023809D01*
X394554819Y-197023809D02*
X394554819Y-197119047D01*
X394554819Y-197119047D02*
X394507200Y-197214285D01*
X394507200Y-197214285D02*
X394459580Y-197261904D01*
X394459580Y-197261904D02*
X394364342Y-197309523D01*
X394364342Y-197309523D02*
X394173866Y-197357142D01*
X394173866Y-197357142D02*
X393935771Y-197357142D01*
X393935771Y-197357142D02*
X393745295Y-197309523D01*
X393745295Y-197309523D02*
X393650057Y-197261904D01*
X393650057Y-197261904D02*
X393602438Y-197214285D01*
X393602438Y-197214285D02*
X393554819Y-197119047D01*
X393554819Y-196166666D02*
X393554819Y-196071428D01*
X393554819Y-196071428D02*
X393602438Y-195976190D01*
X393602438Y-195976190D02*
X393650057Y-195928571D01*
X393650057Y-195928571D02*
X393745295Y-195880952D01*
X393745295Y-195880952D02*
X393935771Y-195833333D01*
X393935771Y-195833333D02*
X394173866Y-195833333D01*
X394173866Y-195833333D02*
X394364342Y-195880952D01*
X394364342Y-195880952D02*
X394459580Y-195928571D01*
X394459580Y-195928571D02*
X394507200Y-195976190D01*
X394507200Y-195976190D02*
X394554819Y-196071428D01*
X394554819Y-196071428D02*
X394554819Y-196166666D01*
X394554819Y-196166666D02*
X394507200Y-196261904D01*
X394507200Y-196261904D02*
X394459580Y-196309523D01*
X394459580Y-196309523D02*
X394364342Y-196357142D01*
X394364342Y-196357142D02*
X394173866Y-196404761D01*
X394173866Y-196404761D02*
X393935771Y-196404761D01*
X393935771Y-196404761D02*
X393745295Y-196357142D01*
X393745295Y-196357142D02*
X393650057Y-196309523D01*
X393650057Y-196309523D02*
X393602438Y-196261904D01*
X393602438Y-196261904D02*
X393554819Y-196166666D01*
X394554819Y-194642856D02*
X393888152Y-194642856D01*
X393983390Y-194642856D02*
X393935771Y-194595237D01*
X393935771Y-194595237D02*
X393888152Y-194499999D01*
X393888152Y-194499999D02*
X393888152Y-194357142D01*
X393888152Y-194357142D02*
X393935771Y-194261904D01*
X393935771Y-194261904D02*
X394031009Y-194214285D01*
X394031009Y-194214285D02*
X394554819Y-194214285D01*
X394031009Y-194214285D02*
X393935771Y-194166666D01*
X393935771Y-194166666D02*
X393888152Y-194071428D01*
X393888152Y-194071428D02*
X393888152Y-193928571D01*
X393888152Y-193928571D02*
X393935771Y-193833332D01*
X393935771Y-193833332D02*
X394031009Y-193785713D01*
X394031009Y-193785713D02*
X394554819Y-193785713D01*
X394554819Y-193309523D02*
X393888152Y-193309523D01*
X393983390Y-193309523D02*
X393935771Y-193261904D01*
X393935771Y-193261904D02*
X393888152Y-193166666D01*
X393888152Y-193166666D02*
X393888152Y-193023809D01*
X393888152Y-193023809D02*
X393935771Y-192928571D01*
X393935771Y-192928571D02*
X394031009Y-192880952D01*
X394031009Y-192880952D02*
X394554819Y-192880952D01*
X394031009Y-192880952D02*
X393935771Y-192833333D01*
X393935771Y-192833333D02*
X393888152Y-192738095D01*
X393888152Y-192738095D02*
X393888152Y-192595238D01*
X393888152Y-192595238D02*
X393935771Y-192499999D01*
X393935771Y-192499999D02*
X394031009Y-192452380D01*
X394031009Y-192452380D02*
X394554819Y-192452380D01*
D23*
X378250000Y-92500000D02*
X395836420Y-92500000D01*
X395836420Y-302500000D02*
X378250000Y-302500000D01*
X395250000Y-92500000D02*
X395250000Y-302500000D01*
X395250000Y-92500000D02*
X395836421Y-93626504D01*
X395250000Y-92500000D02*
X394663579Y-93626504D01*
X395250000Y-302500000D02*
X394663579Y-301373496D01*
X395250000Y-302500000D02*
X395836421Y-301373496D01*
M02*
