%TF.GenerationSoftware,KiCad,Pcbnew,10.0.1*%
%TF.CreationDate,2026-07-08T12:20:54+03:00*%
%TF.ProjectId,Storage_Armature_MCU_PCB,53746f72-6167-4655-9f41-726d61747572,rev?*%
%TF.SameCoordinates,Original*%
%TF.FileFunction,Profile,NP*%
%FSLAX46Y46*%
G04 Gerber Fmt 4.6, Leading zero omitted, Abs format (unit mm)*
G04 Created by KiCad (PCBNEW 10.0.1) date 2026-07-08 12:20:54*
%MOMM*%
%LPD*%
G01*
G04 APERTURE LIST*
%TA.AperFunction,Profile*%
%ADD10C,0.050000*%
%TD*%
G04 APERTURE END LIST*
D10*
X220250000Y-92500000D02*
X220250000Y-302500000D01*
X220250000Y-92500000D02*
G75*
G02*
X225750000Y-87000000I5500000J0D01*
G01*
X225750000Y-308000000D02*
G75*
G02*
X220250000Y-302500000I0J5500000D01*
G01*
X225750000Y-308000000D02*
X377750000Y-308000000D01*
X231250000Y-279500000D02*
X239250000Y-279500000D01*
X231250000Y-282500000D02*
G75*
G02*
X231250000Y-279500000I0J1500000D01*
G01*
X231250000Y-282500000D02*
X239250000Y-282500000D01*
X239250000Y-279500000D02*
G75*
G02*
X239250000Y-282500000I0J-1500000D01*
G01*
X247250000Y-235500000D02*
G75*
G02*
X250250000Y-235500000I1500000J0D01*
G01*
X247250000Y-243500000D02*
X247250000Y-235500000D01*
X250250000Y-243500000D02*
G75*
G02*
X247250000Y-243500000I-1500000J0D01*
G01*
X250250000Y-243500000D02*
X250250000Y-235500000D01*
X256250000Y-279500000D02*
X264250000Y-279500000D01*
X256250000Y-282500000D02*
G75*
G02*
X256250000Y-279500000I0J1500000D01*
G01*
X256250000Y-282500000D02*
X264250000Y-282500000D01*
X263000000Y-171500000D02*
X263000000Y-184500000D01*
X263000000Y-171500000D02*
G75*
G02*
X265000000Y-171500000I1000000J0D01*
G01*
X264250000Y-279500000D02*
G75*
G02*
X264250000Y-282500000I0J-1500000D01*
G01*
X265000000Y-171500000D02*
X265000000Y-184500000D01*
X265000000Y-184500000D02*
G75*
G02*
X263000000Y-184500000I-1000000J0D01*
G01*
X266250000Y-130250000D02*
X266250000Y-148250000D01*
X266250000Y-130250000D02*
G75*
G02*
X268750000Y-130250000I1250000J0D01*
G01*
X268750000Y-148250000D02*
G75*
G02*
X266250000Y-148250000I-1250000J0D01*
G01*
X268750000Y-148250000D02*
X268750000Y-130250000D01*
X281250000Y-279500000D02*
X289250000Y-279500000D01*
X281250000Y-282500000D02*
G75*
G02*
X281250000Y-279500000I0J1500000D01*
G01*
X281250000Y-282500000D02*
X289250000Y-282500000D01*
X289250000Y-279500000D02*
G75*
G02*
X289250000Y-282500000I0J-1500000D01*
G01*
X300250000Y-126750000D02*
G75*
G02*
X300250000Y-124750000I0J1000000D01*
G01*
X300250000Y-126750000D02*
X311250000Y-126750000D01*
X306250000Y-279500000D02*
X314250000Y-279500000D01*
X306250000Y-282500000D02*
G75*
G02*
X306250000Y-279500000I0J1500000D01*
G01*
X306250000Y-282500000D02*
X314250000Y-282500000D01*
X311250000Y-124750000D02*
X300250000Y-124750000D01*
X311250000Y-124750000D02*
G75*
G02*
X311250000Y-126750000I0J-1000000D01*
G01*
X314250000Y-279500000D02*
G75*
G02*
X314250000Y-282500000I0J-1500000D01*
G01*
X354750000Y-107750000D02*
X354750000Y-115750000D01*
X354750000Y-107750000D02*
G75*
G02*
X357750000Y-107750000I1500000J0D01*
G01*
X354750000Y-130750000D02*
X354750000Y-138750000D01*
X354750000Y-130750000D02*
G75*
G02*
X357750000Y-130750000I1500000J0D01*
G01*
X354750000Y-153750000D02*
X354750000Y-161750000D01*
X354750000Y-153750000D02*
G75*
G02*
X357750000Y-153750000I1500000J0D01*
G01*
X354750000Y-176750000D02*
X354750000Y-184750000D01*
X354750000Y-176750000D02*
G75*
G02*
X357750000Y-176750000I1500000J0D01*
G01*
X354750000Y-199750000D02*
X354750000Y-207750000D01*
X354750000Y-199750000D02*
G75*
G02*
X357750000Y-199750000I1500000J0D01*
G01*
X354750000Y-222750000D02*
X354750000Y-230750000D01*
X354750000Y-222750000D02*
G75*
G02*
X357750000Y-222750000I1500000J0D01*
G01*
X354750000Y-245750000D02*
X354750000Y-253750000D01*
X354750000Y-245750000D02*
G75*
G02*
X357750000Y-245750000I1500000J0D01*
G01*
X354750000Y-268750000D02*
X354750000Y-276750000D01*
X354750000Y-268750000D02*
G75*
G02*
X357750000Y-268750000I1500000J0D01*
G01*
X357750000Y-107750000D02*
X357750000Y-115750000D01*
X357750000Y-115750000D02*
G75*
G02*
X354750000Y-115750000I-1500000J0D01*
G01*
X357750000Y-130750000D02*
X357750000Y-138750000D01*
X357750000Y-138750000D02*
G75*
G02*
X354750000Y-138750000I-1500000J0D01*
G01*
X357750000Y-153750000D02*
X357750000Y-161750000D01*
X357750000Y-161750000D02*
G75*
G02*
X354750000Y-161750000I-1500000J0D01*
G01*
X357750000Y-176750000D02*
X357750000Y-184750000D01*
X357750000Y-184750000D02*
G75*
G02*
X354750000Y-184750000I-1500000J0D01*
G01*
X357750000Y-199750000D02*
X357750000Y-207750000D01*
X357750000Y-207750000D02*
G75*
G02*
X354750000Y-207750000I-1500000J0D01*
G01*
X357750000Y-222750000D02*
X357750000Y-230750000D01*
X357750000Y-230750000D02*
G75*
G02*
X354750000Y-230750000I-1500000J0D01*
G01*
X357750000Y-245750000D02*
X357750000Y-253750000D01*
X357750000Y-253750000D02*
G75*
G02*
X354750000Y-253750000I-1500000J0D01*
G01*
X357750000Y-268750000D02*
X357750000Y-276750000D01*
X357750000Y-276750000D02*
G75*
G02*
X354750000Y-276750000I-1500000J0D01*
G01*
X377750000Y-87000000D02*
X225750001Y-87000000D01*
X377750000Y-87000000D02*
G75*
G02*
X383250000Y-92500000I0J-5500000D01*
G01*
X383250000Y-302500000D02*
G75*
G02*
X377750000Y-308000000I-5500000J0D01*
G01*
X383250000Y-302500000D02*
X383250000Y-92500000D01*
M02*
